<svg width="43" height="40" viewBox="0 0 43 40" fill="none" xmlns="http://www.w3.org/2000/svg">
<g clip-path="url(#clip0_14_2768)">
<path d="M6.16585 26.0371C3.33249 20.3877 7.7046 12.4611 15.9285 8.33719C24.158 4.21 33.1222 5.44618 35.9555 11.0955C38.7889 16.7449 42.6941 18.9731 26.1928 28.7954C11.7577 37.3879 8.99921 31.6864 6.16585 26.0371Z" fill="url(#paint0_linear_14_2768)"/>
<path d="M27.5499 31.1821C35.7759 27.0569 40.3941 19.6243 37.8649 14.5809C35.3357 9.53751 26.6169 8.79318 18.3909 12.9184C10.1649 17.0436 5.54671 24.4763 8.0759 29.5196C10.6051 34.563 19.3239 35.3074 27.5499 31.1821Z" fill="url(#paint1_linear_14_2768)"/>
<g style="mix-blend-mode:screen" opacity="0.38">
<path d="M21.9812 33.2309L37.7053 14.2891C36.4902 12.1461 34.1008 10.8383 31.1176 10.4132L12.3123 33.0722C14.9335 34.0454 18.3537 34.112 21.9845 33.2365L21.9812 33.2309Z" fill="url(#paint2_linear_14_2768)"/>
<path d="M7.96002 29.2799C7.99206 29.3591 8.03301 29.4406 8.07064 29.5166C8.47351 30.3204 9.02835 31.0111 9.72066 31.5898L27.3832 10.3143C25.9897 10.4253 24.5344 10.6866 23.0495 11.1016L7.96002 29.2799Z" fill="url(#paint3_linear_14_2768)"/>
</g>
<path style="mix-blend-mode:multiply" d="M27.5453 31.1818C35.7715 27.0491 40.3871 19.6203 37.8636 14.5806C35.3313 9.53859 26.6129 8.79143 18.3889 12.9153C10.165 17.0392 5.54387 24.4712 8.07063 29.5166C10.603 34.5586 19.3181 35.3001 27.542 31.1763L27.5453 31.1818ZM18.4343 13.0169C26.5767 8.93396 35.2038 9.66742 37.7062 14.6592C40.2086 19.6509 35.6368 27.0007 27.4944 31.0836C19.352 35.1665 10.7305 34.4297 8.22247 29.4413C5.72004 24.4496 10.2919 17.0998 18.4343 13.0169Z" fill="url(#paint4_linear_14_2768)"/>
<path style="mix-blend-mode:screen" d="M27.5453 31.1818C35.7715 27.0491 40.397 19.6371 37.878 14.6174C35.3645 9.59443 26.6505 8.86735 18.4266 12.9912C10.2026 17.1151 5.57152 24.5304 8.09389 29.5556C10.6129 34.5753 19.3214 35.3057 27.5509 31.1785L27.5453 31.1818ZM18.4686 13.0872C26.611 9.00429 35.2314 9.72659 37.7206 14.696C40.2097 19.6654 35.6312 27.004 27.4944 31.0836C19.352 35.1665 10.7349 34.4498 8.2424 29.4748C5.75327 24.5054 10.3317 17.1668 18.4686 13.0872Z" fill="url(#paint5_linear_14_2768)"/>
<path style="mix-blend-mode:screen" d="M26.5315 29.1695C32.8871 25.9823 36.4559 20.2411 34.5027 16.3463C32.5495 12.4515 25.8139 11.8778 19.4583 15.0651C13.1028 18.2523 9.53395 23.9934 11.4872 27.8883C13.4404 31.7831 20.176 32.3567 26.5315 29.1695Z" fill="url(#paint6_linear_14_2768)"/>
<path style="mix-blend-mode:screen" d="M26.5665 29.2392C32.983 26.0214 36.5856 20.2243 34.6131 16.2909C32.6406 12.3576 25.8399 11.7775 19.4234 14.9954C13.0069 18.2132 9.40427 24.0103 11.3768 27.9436C13.3493 31.877 20.15 32.457 26.5665 29.2392Z" fill="url(#paint7_linear_14_2768)"/>
<path d="M26.507 29.1025C32.8626 25.9153 36.4314 20.1741 34.4782 16.2793C32.525 12.3844 25.7894 11.8108 19.4338 14.9981C13.0782 18.1853 9.50941 23.9264 11.4626 27.8213C13.4158 31.7161 20.1514 32.2897 26.507 29.1025Z" fill="#99570E"/>
<path d="M25.3339 26.7772C31.4456 23.7122 35.0959 18.6268 33.487 15.4185C31.8781 12.2102 25.6193 12.0941 19.5075 15.159C13.3958 18.224 9.74549 23.3094 11.3544 26.5177C12.9633 29.7259 19.2221 29.8421 25.3339 26.7772Z" fill="url(#paint8_linear_14_2768)"/>
<path style="mix-blend-mode:multiply" d="M25.1414 26.381C19.1549 29.3849 13.0286 29.3333 11.2682 26.3124C11.2936 26.3805 11.3279 26.4508 11.3589 26.5156C12.967 29.7254 19.2291 29.8398 25.3395 26.7774C31.4499 23.7149 35.0977 18.6244 33.4896 15.4145C33.453 15.3531 33.4187 15.2828 33.3821 15.2213C34.7462 18.4404 31.1223 23.3806 25.1414 26.381Z" fill="url(#paint9_linear_14_2768)"/>
</g>
<defs>
<linearGradient id="paint0_linear_14_2768" x1="35.3256" y1="13.281" x2="7.34322" y2="27.3138" gradientUnits="userSpaceOnUse">
<stop stop-color="#FFD66B"/>
<stop offset="0.14" stop-color="#FFEB65"/>
<stop offset="0.22" stop-color="#D87F20"/>
<stop offset="0.35" stop-color="#D87F20"/>
<stop offset="0.47" stop-color="#6C440F"/>
<stop offset="0.6" stop-color="#6C440F"/>
<stop offset="0.64" stop-color="#FFEB65"/>
<stop offset="0.73" stop-color="#FFEB65"/>
<stop offset="0.81" stop-color="#D87F20"/>
<stop offset="0.92" stop-color="#FFD66B"/>
<stop offset="1" stop-color="#DA9528"/>
</linearGradient>
<linearGradient id="paint1_linear_14_2768" x1="19.4722" y1="15.0747" x2="27.9076" y2="31.8955" gradientUnits="userSpaceOnUse">
<stop stop-color="#FFEB74"/>
<stop offset="1" stop-color="#FFD86C"/>
</linearGradient>
<linearGradient id="paint2_linear_14_2768" x1="22.6866" y1="19.0723" x2="27.6327" y2="28.9352" gradientUnits="userSpaceOnUse">
<stop stop-color="#FFEB74"/>
<stop offset="1" stop-color="#FFD86C"/>
</linearGradient>
<linearGradient id="paint3_linear_14_2768" x1="16.7689" y1="18.0286" x2="20.5128" y2="25.4942" gradientUnits="userSpaceOnUse">
<stop stop-color="#FFEB74"/>
<stop offset="1" stop-color="#FFD86C"/>
</linearGradient>
<linearGradient id="paint4_linear_14_2768" x1="28.0759" y1="32.2545" x2="18.9918" y2="14.1402" gradientUnits="userSpaceOnUse">
<stop stop-color="#FFEB74"/>
<stop offset="1" stop-color="#FFD86C"/>
</linearGradient>
<linearGradient id="paint5_linear_14_2768" x1="28.0781" y1="32.2589" x2="19.0295" y2="14.2153" gradientUnits="userSpaceOnUse">
<stop stop-color="#FFEB74"/>
<stop offset="1" stop-color="#FFD86C"/>
</linearGradient>
<linearGradient id="paint6_linear_14_2768" x1="35.2255" y1="17.7731" x2="12.2041" y2="29.318" gradientUnits="userSpaceOnUse">
<stop stop-color="#FFEB74"/>
<stop offset="1" stop-color="#FFD86A"/>
</linearGradient>
<linearGradient id="paint7_linear_14_2768" x1="35.3301" y1="17.7207" x2="12.0996" y2="29.3704" gradientUnits="userSpaceOnUse">
<stop stop-color="#FFEB74"/>
<stop offset="1" stop-color="#FFD86A"/>
</linearGradient>
<linearGradient id="paint8_linear_14_2768" x1="21.0672" y1="18.2547" x2="25.0126" y2="26.122" gradientUnits="userSpaceOnUse">
<stop stop-color="#FFC74E"/>
<stop offset="1" stop-color="#FF984D"/>
</linearGradient>
<linearGradient id="paint9_linear_14_2768" x1="23.4752" y1="23.0804" x2="25.5143" y2="27.1465" gradientUnits="userSpaceOnUse">
<stop stop-color="#FFEB74"/>
<stop offset="1" stop-color="#FFD86A"/>
</linearGradient>
<clipPath id="clip0_14_2768">
<rect width="25.7085" height="33.4224" fill="white" transform="translate(29.4872 0.190796) rotate(59.2369)"/>
</clipPath>
</defs>
</svg>
