<svg width="151" height="154" viewBox="0 0 151 154" fill="none" xmlns="http://www.w3.org/2000/svg">
<g clip-path="url(#clip0_14_2688)">
<path d="M122.417 38.3359C138.454 54.8247 131.991 87.1305 107.987 110.473C83.9676 133.833 51.5071 139.391 35.4704 122.903C19.4336 106.414 3.43601 102.973 49.8998 50.7655C90.5458 5.09519 106.38 21.8471 122.417 38.3359Z" fill="url(#paint0_linear_14_2688)"/>
<path d="M42.5694 43.9751C18.5596 67.3247 10.701 98.1865 25.0167 112.907C39.3325 127.628 70.4014 120.632 94.4112 97.2828C118.421 73.9332 126.28 43.0713 111.964 28.3508C97.6481 13.6303 66.5792 20.6255 42.5694 43.9751Z" fill="url(#paint1_linear_14_2688)"/>
<g style="mix-blend-mode:screen" opacity="0.38">
<path d="M59.6404 30.7492L25.8911 113.744C32.4613 119.845 42.1884 121.758 53.0059 119.955L93.3627 20.6783C83.1986 20.181 71.2586 23.7071 59.6227 30.7335L59.6404 30.7492Z" fill="url(#paint2_linear_14_2688)"/>
<path d="M112.629 29.0553C112.431 28.8155 112.2 28.5777 111.986 28.3557C109.705 26.0091 107.021 24.2221 103.983 22.975L66.0715 116.196C70.7846 114.28 75.5471 111.775 80.2433 108.704L112.629 29.0553Z" fill="url(#paint3_linear_14_2688)"/>
</g>
<path style="mix-blend-mode:multiply" d="M42.5856 43.971C18.5835 67.347 10.7297 98.1926 25.0214 112.907C39.3465 127.619 70.4173 120.634 94.4214 97.2914C118.425 73.9488 126.295 43.0855 111.986 28.3557C97.6605 13.6435 66.6074 20.6442 42.6033 43.9868L42.5856 43.971ZM94.1525 96.9887C70.3862 120.1 39.6474 127.032 25.4813 112.461C11.3152 97.8905 19.104 67.367 42.8702 44.256C66.6365 21.1451 97.3596 14.2306 111.541 28.7836C125.708 43.3542 117.919 73.8778 94.1525 96.9887Z" fill="url(#paint4_linear_14_2688)"/>
<path style="mix-blend-mode:screen" d="M42.5856 43.9711C18.5835 67.347 10.6767 98.1455 24.9311 112.795C39.1699 127.462 70.2033 120.412 94.2074 97.0693C118.211 73.7267 126.134 42.9106 111.862 28.2456C97.6075 13.5963 66.5897 20.6285 42.5699 43.9887L42.5856 43.9711ZM93.9562 96.7824C70.1899 119.893 39.4864 126.857 25.391 112.349C11.2956 97.8414 19.1197 67.3493 42.8702 44.256C66.6365 21.1451 97.3223 14.1657 111.435 28.6892C125.531 43.197 117.707 73.6891 93.9562 96.7824Z" fill="url(#paint5_linear_14_2688)"/>
<path style="mix-blend-mode:screen" d="M48.3137 49.8396C29.7632 67.8799 23.6874 91.7202 34.7429 103.088C45.7984 114.456 69.7988 109.048 88.3493 91.0072C106.9 72.9668 112.976 49.1266 101.92 37.7584C90.8645 26.3903 66.8641 31.7992 48.3137 49.8396Z" fill="url(#paint6_linear_14_2688)"/>
<path style="mix-blend-mode:screen" d="M48.1158 49.6361C29.3874 67.8495 23.2559 91.9211 34.4207 103.402C45.5856 114.882 69.8188 109.424 88.5472 91.2107C107.276 72.9973 113.407 48.9256 102.242 37.4451C91.0774 25.9646 66.8442 31.4227 48.1158 49.6361Z" fill="url(#paint7_linear_14_2688)"/>
<path d="M48.4725 50.0451C29.922 68.0855 23.8462 91.9258 34.9017 103.294C45.9572 114.662 69.9576 109.253 88.5081 91.2127C107.059 73.1724 113.134 49.3321 102.079 37.964C91.0234 26.5958 67.0229 32.0047 48.4725 50.0451Z" fill="#99570E"/>
<path d="M55.0973 56.8245C37.2585 74.1728 30.1797 95.8275 39.2864 105.192C48.3931 114.556 70.2367 108.084 88.0755 90.7353C105.914 73.387 112.993 51.7323 103.886 42.3681C94.7797 33.0039 72.936 39.4763 55.0973 56.8245Z" fill="url(#paint8_linear_14_2688)"/>
<path style="mix-blend-mode:multiply" d="M56.2002 57.9875C73.6717 40.9889 94.9844 34.4379 104.411 42.9857C104.248 42.7774 104.052 42.571 103.873 42.3804C94.7673 33.0099 72.9145 39.4918 55.0775 56.8299C37.2405 74.1681 30.176 95.8378 39.2818 105.208C39.4761 105.381 39.6724 105.588 39.8668 105.761C31.5979 96.0901 38.7445 74.9684 56.2002 57.9875Z" fill="url(#paint9_linear_14_2688)"/>
</g>
<defs>
<linearGradient id="paint0_linear_14_2688" x1="35.2553" y1="114.628" x2="116.929" y2="35.1996" gradientUnits="userSpaceOnUse">
<stop stop-color="#FFD66B"/>
<stop offset="0.14" stop-color="#FFEB65"/>
<stop offset="0.22" stop-color="#D87F20"/>
<stop offset="0.35" stop-color="#D87F20"/>
<stop offset="0.47" stop-color="#6C440F"/>
<stop offset="0.6" stop-color="#6C440F"/>
<stop offset="0.64" stop-color="#FFEB65"/>
<stop offset="0.73" stop-color="#FFEB65"/>
<stop offset="0.81" stop-color="#D87F20"/>
<stop offset="0.92" stop-color="#FFD66B"/>
<stop offset="1" stop-color="#DA9528"/>
</linearGradient>
<linearGradient id="paint1_linear_14_2688" x1="88.2904" y1="90.9889" x2="40.5445" y2="41.893" gradientUnits="userSpaceOnUse">
<stop stop-color="#FFEB74"/>
<stop offset="1" stop-color="#FFD86C"/>
</linearGradient>
<linearGradient id="paint2_linear_14_2688" x1="72.7465" y1="80.6497" x2="44.7506" y2="51.8622" gradientUnits="userSpaceOnUse">
<stop stop-color="#FFEB74"/>
<stop offset="1" stop-color="#FFD86C"/>
</linearGradient>
<linearGradient id="paint3_linear_14_2688" x1="94.4254" y1="77.7701" x2="73.2343" y2="55.9797" gradientUnits="userSpaceOnUse">
<stop stop-color="#FFEB74"/>
<stop offset="1" stop-color="#FFD86C"/>
</linearGradient>
<linearGradient id="paint4_linear_14_2688" x1="39.5662" y1="40.8321" x2="90.9839" y2="93.7037" gradientUnits="userSpaceOnUse">
<stop stop-color="#FFEB74"/>
<stop offset="1" stop-color="#FFD86C"/>
</linearGradient>
<linearGradient id="paint5_linear_14_2688" x1="39.5537" y1="40.8192" x2="90.7709" y2="93.4846" gradientUnits="userSpaceOnUse">
<stop stop-color="#FFEB74"/>
<stop offset="1" stop-color="#FFD86C"/>
</linearGradient>
<linearGradient id="paint6_linear_14_2688" x1="30.6676" y1="98.9318" x2="97.8618" y2="33.5854" gradientUnits="userSpaceOnUse">
<stop stop-color="#FFEB74"/>
<stop offset="1" stop-color="#FFD86A"/>
</linearGradient>
<linearGradient id="paint7_linear_14_2688" x1="30.3624" y1="99.2286" x2="98.167" y2="33.2886" gradientUnits="userSpaceOnUse">
<stop stop-color="#FFEB74"/>
<stop offset="1" stop-color="#FFD86A"/>
</linearGradient>
<linearGradient id="paint8_linear_14_2688" x1="79.2633" y1="81.7077" x2="56.9317" y2="58.7448" gradientUnits="userSpaceOnUse">
<stop stop-color="#FFC74E"/>
<stop offset="1" stop-color="#FF984D"/>
</linearGradient>
<linearGradient id="paint9_linear_14_2688" x1="65.6073" y1="67.6093" x2="54.0655" y2="55.7413" gradientUnits="userSpaceOnUse">
<stop stop-color="#FFEB74"/>
<stop offset="1" stop-color="#FFD86A"/>
</linearGradient>
<clipPath id="clip0_14_2688">
<rect width="93.5639" height="121.638" fill="white" transform="translate(69.8923 153.633) rotate(-138.331)"/>
</clipPath>
</defs>
</svg>
