<svg width="172" height="195" viewBox="0 0 172 195" fill="none" xmlns="http://www.w3.org/2000/svg">
<g clip-path="url(#clip0_14_2109)">
<path d="M86.0181 28.3141L79.8319 25.0242L49.0837 36.3008L69.7936 65.2364L86.6697 58.9184C86.6697 58.9184 90.3403 49.9843 86.0181 28.3141Z" fill="url(#paint0_linear_14_2109)"/>
<path d="M108.919 68.2926L97.3715 72.6157C87.3862 52.0192 70.9506 57.4889 70.9506 57.4889C70.9506 57.4889 54.9639 64.1574 60.9596 86.2475L49.4123 90.5706C49.4123 90.5706 48.7567 86.4808 48.9038 80.7986C49.1694 70.2135 52.2493 54.1115 67.5427 48.386C81.6373 43.1092 93.6787 51.2864 101.088 58.6991C106.044 63.6667 108.919 68.2926 108.919 68.2926Z" fill="url(#paint1_linear_14_2109)"/>
<g style="mix-blend-mode:multiply" opacity="0.5">
<path d="M108.919 68.2925L97.3715 72.6156C87.3863 52.0191 70.9507 57.4889 70.9507 57.4889C70.9507 57.4889 54.9639 64.1574 60.9596 86.2475L49.4124 90.5706C49.4124 90.5706 48.7568 86.4808 48.9039 80.7985C52.5386 86.1434 54.4859 80.1075 58.7196 66.7449C62.9567 53.3916 84.731 55.6506 92.8735 59.9165C101.016 64.1824 103.285 63.7389 101.088 58.6991C106.044 63.6667 108.919 68.2925 108.919 68.2925Z" fill="#BE2F55"/>
</g>
<path d="M148.013 88.8932C133.872 59.2495 93.6395 65.3851 76.3232 71.868C59.007 78.3508 24.6365 100.145 33.4489 131.784C42.2519 163.426 79.536 185.922 114.178 172.952C148.82 159.983 162.155 118.537 148.023 88.8897L148.013 88.8932Z" fill="url(#paint2_linear_14_2109)"/>
<path d="M33.7711 36.4703C37.8237 44.072 61.4709 69.388 63.1432 69.7763C64.8062 70.1681 83.0686 62.8185 83.7935 62.0453C84.5184 61.272 85.6524 59.3099 85.6524 59.3099L75.9052 20.6962L64.4607 18.9051C64.4607 18.9051 32.2862 33.6734 33.7711 36.4703Z" fill="url(#paint3_linear_14_2109)"/>
<path d="M111.28 162.73C132.284 154.866 142.755 130.977 134.667 109.373C126.578 87.7683 102.994 76.6292 81.9894 84.4928C60.9848 92.3565 50.5141 116.245 58.6024 137.85C66.6907 159.454 90.2751 170.593 111.28 162.73Z" fill="url(#paint4_linear_14_2109)"/>
<path d="M64.1914 148.186C64.1914 148.186 78.8913 174.845 111.276 162.72C140.252 151.872 137.24 120.838 137.24 120.838C137.24 120.838 132.869 147.354 108.117 156.621C83.3648 165.888 64.182 148.19 64.182 148.19L64.1914 148.186Z" fill="url(#paint5_linear_14_2109)"/>
<g style="mix-blend-mode:soft-light" opacity="0.3">
<path d="M63.673 128.69C72.9562 155.455 97.1413 145.13 113.744 125.588C130.346 106.047 119.308 82.8652 89.4057 91.9243C59.5038 100.983 60.713 120.157 63.673 128.69Z" fill="white"/>
</g>
<g style="mix-blend-mode:multiply" opacity="0.5">
<path d="M56.724 131.292C60.3116 94.1568 92.5324 75.9756 129.8 100.026C129.8 100.026 113.445 73.0797 81.9894 84.4928C50.5342 95.9059 56.724 131.292 56.724 131.292Z" fill="#BE2F55"/>
</g>
<g style="mix-blend-mode:soft-light">
<path d="M34.459 120.963C38.8803 128.266 50.9488 121.057 53.3298 113.898C55.7108 106.739 62.8532 88.6245 80.6673 83.4715C98.4814 78.3185 110.706 81.1095 126.641 91.5875C142.567 102.069 143.177 82.0226 135.959 76.2895C128.731 70.5599 104.805 62.2943 74.9258 73.9822C45.047 85.67 29.8084 113.275 34.459 120.963Z" fill="white"/>
</g>
<g style="mix-blend-mode:multiply" opacity="0.2">
<path d="M34.4205 127.192C32.1746 135.624 42.8648 155.594 56.1958 161.911C69.5269 168.228 64.6067 152.718 62.8308 149.144C61.0456 145.573 52.9769 125.818 50.846 125.089C48.7186 124.369 35.3634 123.635 34.4205 127.192Z" fill="#DA0553"/>
</g>
<g style="mix-blend-mode:multiply" opacity="0.2">
<path d="M132.504 98.4049C137.9 108.568 138.479 128.34 138.255 134.959C138.028 141.568 149.288 133.968 151.007 118.994C152.736 104.018 147.18 89.3761 144.361 90.4315C141.542 91.4868 130.788 95.1924 132.498 98.4178L132.504 98.4049Z" fill="#DA0553"/>
</g>
<path opacity="0.5" d="M96.629 174.792C120.036 176.28 133.378 160.692 134.218 157.516C135.045 154.334 115.008 163.021 105.375 166.125C95.7331 169.233 87.3772 174.209 96.6418 174.798L96.629 174.792Z" fill="#FFE861"/>
<g style="mix-blend-mode:multiply" opacity="0.5">
<path d="M64.4607 18.9052C64.4607 18.9052 69.0132 23.9065 83.7935 62.0453L85.6524 59.3099L75.9052 20.6963L64.4607 18.9052Z" fill="#923B66"/>
</g>
<g style="mix-blend-mode:soft-light">
<path d="M36.3479 37.1927C42.0548 45.9049 41.7158 47.2811 44.1279 47.5633C46.5493 47.842 71.9092 38.1449 71.7954 36.415C71.3727 30.3801 66.0394 21.3252 63.2487 22.0283C60.4487 22.7349 34.8627 34.9084 36.3479 37.1927Z" fill="#B6D3FF"/>
</g>
<g style="mix-blend-mode:multiply" opacity="0.3">
<path d="M46.826 49.1799C50.712 55.1675 61.2582 68.6775 63.6926 68.8766C66.1269 69.0757 81.9857 63.2346 81.6607 60.3985C81.3228 57.5566 73.4454 36.9718 71.5255 37.776C69.6056 38.5802 45.0987 46.5058 46.826 49.1799Z" fill="#963B66"/>
</g>
<g style="mix-blend-mode:multiply" opacity="0.5">
<path d="M74.2526 22.5855C71.2666 27.4727 70.963 30.4267 75.5263 41.5317C80.0895 52.6367 83.2069 55.8582 83.6139 54.3498C84.0208 52.8413 81.1124 44.0745 78.553 34.9849C75.9936 25.8952 75.4464 20.6117 74.2491 22.5762L74.2526 22.5855Z" fill="#923B66"/>
</g>
<g style="mix-blend-mode:multiply" opacity="0.5">
<path d="M115.091 108.651C113.934 107.642 101.741 108.673 100.861 108.831C100.109 108.963 93.9135 103.936 90.3302 102.95C89.6129 102.717 89.0253 102.659 88.6683 102.846C85.9487 104.11 84.172 114.908 83.404 115.367C82.6266 115.829 72.7643 123.055 72.5539 124.575C72.3377 126.109 73.9188 130.674 75.1343 131.725C76.3533 132.784 82.3546 135.951 82.7074 137.122C83.0673 138.311 88.4018 151.562 89.1762 152.404C89.954 153.255 98.6828 145.054 103.313 141.965C106.281 140.992 120.434 142.09 120.465 140.946C120.496 139.803 116.183 125.914 115.673 124.78C115.167 123.656 117.613 117.327 117.84 115.737C118.061 114.159 116.261 109.665 115.091 108.651Z" fill="#BE2F55"/>
</g>
<path d="M117.364 114.58C117.034 116.209 114.314 122.491 114.724 123.587C115.135 124.683 118.186 137.368 118.077 138.36C117.971 139.36 105.331 138.625 102.595 139.532C98.304 142.302 90.3916 149.461 89.6581 148.785C88.9211 148.1 83.3867 136.569 82.9765 135.473C82.5662 134.377 76.3892 131.426 75.0707 130.414C73.7522 129.402 71.7159 124.847 71.8045 123.286C71.8931 121.726 81.7942 114.176 82.5962 113.694C83.3853 113.206 84.7601 101.106 87.6904 99.7206C90.8101 98.841 99.7932 107.063 100.709 106.913C101.624 106.762 114.055 105.942 115.147 107.06C116.238 108.178 117.694 112.951 117.364 114.58Z" fill="url(#paint6_linear_14_2109)"/>
<path d="M117.364 114.58C117.034 116.209 114.314 122.491 114.724 123.587C115.135 124.683 118.186 137.368 118.077 138.36C117.971 139.36 104.852 138.602 102.595 139.532C99.2032 141.539 90.3915 149.461 89.658 148.785C88.921 148.1 83.3866 136.569 82.9764 135.473C82.5661 134.377 76.3891 131.426 75.0706 130.414C73.7521 129.402 71.7158 124.847 71.8044 123.286C74.6508 127.581 84.3035 131.346 84.4753 131.805C84.6471 132.263 88.3663 143.738 89.1806 144.373C89.9948 145.007 99.9011 134.39 100.575 134.138C101.25 133.885 115.693 135.387 115.89 134.373C116.087 133.36 111.357 122.264 111.185 121.805C111.013 121.346 115.617 111.796 115.147 107.06C116.238 108.178 117.694 112.951 117.364 114.58Z" fill="url(#paint7_linear_14_2109)"/>
<g style="mix-blend-mode:soft-light" opacity="0.7">
<path d="M85.8288 128.831C81.5148 130.799 71.8803 123.717 72.076 123.185C72.7559 121.35 78.7925 117.595 82.7189 114.021C83.7482 113.092 84.5141 101.476 87.6869 99.7112C89.861 98.5022 100.078 107.053 100.385 107.162C101.421 107.532 113.028 107.704 113.142 108.067C113.389 108.839 103.436 120.787 85.8288 128.831Z" fill="white"/>
</g>
<g style="mix-blend-mode:multiply" opacity="0.5">
<path d="M111.421 121.695C112.469 122.467 114.121 123.343 114.296 122.957C114.472 122.571 116.925 116.004 117.099 115.042C117.521 112.802 115.981 108.52 115.509 109.284C115.037 110.048 115.01 111.201 113.608 115.442C112.206 119.682 111.015 121.409 111.412 121.699L111.421 121.695Z" fill="#BD3EA9"/>
</g>
<g style="mix-blend-mode:multiply" opacity="0.5">
<path d="M100.513 134.684C100.781 134.744 102.486 138.527 101.9 139.301C100.272 141.427 90.4083 148.878 90.0481 148.202C89.688 147.525 88.8513 145.233 90.3173 144.043C91.7833 142.854 99.6776 134.506 100.513 134.684Z" fill="#BD3EA9"/>
</g>
<g style="mix-blend-mode:multiply" opacity="0.5">
<path d="M117.735 138.188C117.007 136.87 116.273 135.052 114.62 134.945C112.967 134.837 109.179 134.472 109.314 135.233C109.459 135.991 109.463 138.626 111.774 138.722C114.075 138.822 118.081 138.828 117.735 138.188Z" fill="#BD3EA9"/>
</g>
<path d="M86.2088 71.5199C88.0183 84.2538 107.779 73.9193 106.597 70.219C105.424 66.5151 85.6572 67.6795 86.2088 71.5199Z" fill="white"/>
<g style="mix-blend-mode:multiply" opacity="0.3">
<path d="M56.2689 122.376C88.4725 84.212 127.078 100.426 125.309 96.5283C123.54 92.6311 100.522 77.5226 82.3187 85.8858C64.1154 94.249 54.7101 124.23 56.2689 122.376Z" fill="#AB2781"/>
</g>
</g>
<defs>
<linearGradient id="paint0_linear_14_2109" x1="90.1273" y1="39.2901" x2="55.1108" y2="52.3996" gradientUnits="userSpaceOnUse">
<stop stop-color="#9300D6"/>
<stop offset="0.18" stop-color="#98005E"/>
<stop offset="1" stop-color="#DC003B"/>
</linearGradient>
<linearGradient id="paint1_linear_14_2109" x1="67.5333" y1="48.3895" x2="79.1562" y2="79.4351" gradientUnits="userSpaceOnUse">
<stop stop-color="#FF9600"/>
<stop offset="1" stop-color="#FFA900"/>
</linearGradient>
<linearGradient id="paint2_linear_14_2109" x1="76.3232" y1="71.868" x2="114.169" y2="172.956" gradientUnits="userSpaceOnUse">
<stop stop-color="#FFEA34"/>
<stop offset="0.63" stop-color="#FF8100"/>
<stop offset="0.92" stop-color="#FFA400"/>
<stop offset="1" stop-color="#FFBA00"/>
</linearGradient>
<linearGradient id="paint3_linear_14_2109" x1="69.5733" y1="67.9563" x2="52.8385" y2="23.2562" gradientUnits="userSpaceOnUse">
<stop stop-color="#DE0086"/>
<stop offset="1" stop-color="#FF003B"/>
</linearGradient>
<linearGradient id="paint4_linear_14_2109" x1="58.6024" y1="137.85" x2="134.676" y2="109.369" gradientUnits="userSpaceOnUse">
<stop offset="0.04" stop-color="#EF6300"/>
<stop offset="1" stop-color="#E13E00"/>
</linearGradient>
<linearGradient id="paint5_linear_14_2109" x1="69.4751" y1="162.3" x2="142.533" y2="134.948" gradientUnits="userSpaceOnUse">
<stop stop-color="#FFCD00"/>
<stop offset="1" stop-color="#FFE834"/>
</linearGradient>
<linearGradient id="paint6_linear_14_2109" x1="104.152" y1="143.69" x2="87.6869" y2="99.7113" gradientUnits="userSpaceOnUse">
<stop stop-color="#FF9600"/>
<stop offset="1" stop-color="#FFA900"/>
</linearGradient>
<linearGradient id="paint7_linear_14_2109" x1="76.841" y1="137.652" x2="120.792" y2="121.198" gradientUnits="userSpaceOnUse">
<stop offset="0.05" stop-color="#FF4B00"/>
<stop offset="1" stop-color="#FF7204"/>
</linearGradient>
<clipPath id="clip0_14_2109">
<rect width="122.75" height="161.7" fill="white" transform="translate(0 43.0378) rotate(-20.5249)"/>
</clipPath>
</defs>
</svg>
