<svg width="157" height="156" viewBox="0 0 157 156" fill="none" xmlns="http://www.w3.org/2000/svg">
<g clip-path="url(#clip0_14_2098)">
<path d="M110.485 136.959C119.843 107.051 132.485 74.9746 135.435 53.145C135.703 51.1406 134.472 49.2522 132.53 48.6966C107.244 41.4531 75.6537 33.8492 60.7259 31.9049C59.7169 31.7726 58.7629 32.365 58.4534 33.341C50.2358 58.7343 44.0644 86.1634 39.8424 110.376L37.7274 105.68L24.9445 108.68C25.6791 110.848 37.5978 120.304 39.4611 121.057C39.4611 121.057 39.4611 121.057 39.4698 121.062C39.591 121.132 39.7223 121.184 39.8585 121.228C64.1976 128.872 90.376 136.249 108.196 138.444C109.219 138.572 110.174 137.957 110.489 136.973L110.485 136.959Z" fill="url(#paint0_linear_14_2098)"/>
<path d="M102.9 132.257C85.7915 130.15 66.1127 126.075 42.5347 118.293C37.9484 116.777 32.8411 109.683 32.9994 108.689C37.0332 83.5819 46.2747 58.5951 55.1122 31.3081C55.414 30.3854 56.3357 29.809 57.3001 29.9386C71.6452 31.8121 100.903 34.6166 125.184 41.5802C127.047 42.1132 129.316 48.4231 129.062 50.3432C126.231 71.3064 114.086 102.122 105.1 130.848C104.81 131.789 103.878 132.383 102.9 132.257Z" fill="url(#paint1_linear_14_2098)"/>
<path d="M94.5107 126.928C76.6903 124.734 50.5118 117.356 26.1728 109.713C25.1744 109.402 24.5538 108.397 24.7184 107.372C28.9267 81.2226 35.558 50.237 44.7676 21.8254C45.0808 20.863 46.0398 20.262 47.0402 20.3892C61.9629 22.3423 93.5533 29.9462 118.839 37.1896C120.782 37.7452 122.021 39.6386 121.744 41.6381C118.794 63.4676 106.152 95.5441 96.7945 125.452C96.4851 126.428 95.5297 127.043 94.502 126.923L94.5107 126.928Z" fill="url(#paint2_linear_14_2098)"/>
<path d="M96.8032 125.457C106.161 95.5491 118.803 63.4726 121.753 41.643C122.021 39.6386 120.79 37.7502 118.848 37.1946C117.602 36.833 116.328 36.4788 115.055 36.1246C114.197 51.3909 108.644 66.4291 99.0607 78.367C85.5028 95.25 64.1684 105.622 42.507 105.841C36.7105 105.901 30.8836 105.273 25.0979 105.154C24.973 105.891 24.8469 106.649 24.727 107.377C24.5575 108.41 25.1831 109.407 26.1815 109.718C50.5205 117.361 76.6989 124.739 94.5193 126.933C95.5421 127.062 96.4974 126.447 96.8119 125.462L96.8032 125.457Z" fill="url(#paint3_linear_14_2098)"/>
<g style="mix-blend-mode:soft-light">
<path d="M55.9055 31.1541C53.4302 32.1614 51.3015 33.8884 49.4645 35.8301C47.0444 38.3819 45.0416 41.3709 43.8089 44.666C42.5762 47.9611 42.1432 51.591 42.7828 55.0433C42.9318 55.8452 43.2613 56.7745 44.0454 56.9963C44.79 57.2067 45.5217 56.6593 46.0649 56.1184C48.477 53.7005 50.0525 50.5918 51.8664 47.6899C53.6717 44.7831 55.881 41.9364 58.9981 40.5375C60.6647 39.7908 62.5241 39.4902 64.1428 38.6466C65.7615 37.8029 67.1929 36.1236 66.907 34.3189C66.1383 29.5103 59.2071 29.8156 55.9141 31.1591L55.9055 31.1541Z" fill="white"/>
</g>
<path d="M54.4042 24.2944C54.4042 24.2944 52.9821 29.1776 51.0838 29.3056C49.1904 29.4249 47.3565 28.1813 47.3565 28.1813C47.3565 28.1813 43.4214 34.4772 41.3843 34.0055C39.3509 33.5475 43.9072 21.7558 45.2373 19.9719C46.2942 18.5613 57.654 21.2055 62.3597 22.375C63.2915 22.6012 63.37 23.9052 62.4717 24.241C59.3234 25.414 54.4092 24.2858 54.4092 24.2858L54.4042 24.2944ZM105.451 33.4784C104.712 34.899 113.125 38.567 113.125 38.567C113.125 38.567 111.612 41.7467 112.743 43.2886C113.874 44.8304 116.618 44.7174 116.618 44.7174C116.618 44.7174 118.118 53.7588 119.665 52.7585C120.858 51.9923 122.1 43.5411 122.607 39.7231C122.75 38.616 122.11 37.5651 121.071 37.1846C116.327 35.4617 106.098 32.2582 105.46 33.4834L105.451 33.4784ZM27.7356 95.2458C27.4737 94.4595 26.3286 94.5028 26.1191 95.3056C25.0708 99.2614 23.1429 107.421 24.6419 108.944C26.6348 110.972 34.5338 113.951 35.4537 112.658C36.3786 111.356 30.7823 107.409 30.7823 107.409C30.7823 107.409 32.9566 106.043 32.1645 103.415C31.3588 100.79 28.752 100.405 28.752 100.405C28.752 100.405 28.5484 97.678 27.7442 95.2508L27.7356 95.2458ZM101.646 110.529C101.159 109.913 98.4841 113.426 97.5547 115.476C97.5547 115.476 94.9173 115.004 93.6873 117.134C92.4573 119.265 94.124 121.278 94.124 121.278C94.124 121.278 84.0676 123.416 84.1313 125.266C84.195 127.115 95.8206 129.139 97.3349 127.496C98.8443 125.862 103.715 113.166 101.646 110.529Z" fill="url(#paint4_linear_14_2098)"/>
</g>
<defs>
<linearGradient id="paint0_linear_14_2098" x1="148.826" y1="-187.488" x2="19.4277" y2="321.436" gradientUnits="userSpaceOnUse">
<stop stop-color="#CFB7FF"/>
<stop offset="0.33" stop-color="#7443DC"/>
<stop offset="0.66" stop-color="#4A2792"/>
<stop offset="1" stop-color="#140025"/>
</linearGradient>
<linearGradient id="paint1_linear_14_2098" x1="79.9488" y1="83.5657" x2="-50.7178" y2="597.359" gradientUnits="userSpaceOnUse">
<stop stop-color="#FFD188"/>
<stop offset="0.5" stop-color="#E58E0E"/>
<stop offset="1" stop-color="#5C3600"/>
</linearGradient>
<linearGradient id="paint2_linear_14_2098" x1="110.774" y1="-76.8237" x2="-18.6511" y2="432.095" gradientUnits="userSpaceOnUse">
<stop stop-color="#CFB7FF"/>
<stop offset="0.33" stop-color="#7443DC"/>
<stop offset="0.66" stop-color="#4A2792"/>
<stop offset="1" stop-color="#140025"/>
</linearGradient>
<linearGradient id="paint3_linear_14_2098" x1="202.172" y1="-126.147" x2="-104.146" y2="397.672" gradientUnits="userSpaceOnUse">
<stop stop-color="#CFB7FF"/>
<stop offset="0.33" stop-color="#7443DC"/>
<stop offset="0.66" stop-color="#4A2792"/>
<stop offset="1" stop-color="#140025"/>
</linearGradient>
<linearGradient id="paint4_linear_14_2098" x1="143.094" y1="-203.961" x2="-36.9136" y2="503.981" gradientUnits="userSpaceOnUse">
<stop stop-color="#FFD188"/>
<stop offset="0.5" stop-color="#E58E0E"/>
<stop offset="1" stop-color="#5C3600"/>
</linearGradient>
<clipPath id="clip0_14_2098">
<rect width="115.07" height="113.49" fill="white" transform="translate(56.745) rotate(30)"/>
</clipPath>
</defs>
</svg>
