<svg width="173" height="203" viewBox="0 0 173 203" fill="none" xmlns="http://www.w3.org/2000/svg">
<g clip-path="url(#clip0_14_2802)">
<path d="M131.161 156.732C112.437 183.562 65.5755 183.214 26.5211 155.956C-12.5621 128.68 -29.0466 84.8318 -10.3229 58.0014C8.4008 31.1711 8.90967 7.90072 94.3169 58.777C169.03 103.283 149.885 129.901 131.161 156.732Z" fill="url(#paint0_linear_14_2802)"/>
<path d="M101.833 46.7133C62.7669 19.4487 17.5469 16.7628 0.830862 40.7141C-15.8852 64.6654 2.23274 106.184 41.2984 133.449C80.364 160.713 125.584 163.399 142.3 139.448C159.016 115.497 140.898 73.9779 101.833 46.7133Z" fill="url(#paint1_linear_14_2802)"/>
<g style="mix-blend-mode:screen" opacity="0.38">
<path d="M124.893 67.0054L-0.103303 42.1603C-6.85977 52.9766 -6.91886 67.0777 -1.49517 81.7037L148.02 111.404C145.984 97.073 137.851 81.3421 124.91 66.9765L124.893 67.0054Z" fill="url(#paint2_linear_14_2802)"/>
<path d="M141.495 140.567C141.776 140.226 142.046 139.838 142.299 139.48C144.964 135.663 146.739 131.434 147.665 126.856L7.26587 98.9443C11.2085 105.013 15.9874 110.992 21.5386 116.727L141.495 140.567Z" fill="url(#paint3_linear_14_2802)"/>
</g>
<path style="mix-blend-mode:multiply" d="M101.843 46.735C62.7421 19.4882 17.5461 16.8046 0.832563 40.7207C-15.8693 64.6829 2.23476 106.207 41.2891 133.465C80.3435 160.724 125.568 163.425 142.299 139.48C159.001 115.517 140.88 74.0224 101.825 46.7639L101.843 46.735ZM41.6396 133.008C2.97267 106.02 -14.9684 64.9454 1.5785 41.2433C18.1254 17.5413 62.854 20.2206 101.521 47.2091C140.188 74.1977 158.1 115.255 141.582 138.974C125.035 162.676 80.3065 159.997 41.6396 133.008Z" fill="url(#paint4_linear_14_2802)"/>
<path style="mix-blend-mode:screen" d="M101.843 46.735C62.7421 19.4882 17.5978 16.7179 0.964766 40.5645C-15.6972 64.3939 2.48749 105.848 41.5418 133.107C80.5962 160.365 125.769 163.153 142.42 139.277C159.053 115.431 140.897 73.9935 101.814 46.7178L101.843 46.735ZM41.8751 132.679C3.20819 105.69 -14.7674 64.6736 1.7107 41.0871C18.1888 17.5007 62.8829 20.2378 101.521 47.2091C140.188 74.1977 158.181 115.185 141.685 138.801C125.207 162.387 80.5131 159.65 41.8751 132.679Z" fill="url(#paint5_linear_14_2802)"/>
<path style="mix-blend-mode:screen" d="M95.1841 56.3127C65.0012 35.2475 30.0681 33.1654 17.1589 51.6622C4.24968 70.1589 18.2528 102.23 48.4357 123.295C78.6186 144.361 113.552 146.443 126.461 127.946C139.37 109.449 125.367 77.3779 95.1841 56.3127Z" fill="url(#paint6_linear_14_2802)"/>
<path style="mix-blend-mode:screen" d="M95.4151 55.9817C64.9427 34.7144 29.6715 32.6167 16.6347 51.2963C3.59791 69.9759 17.7322 102.359 48.2047 123.626C78.6771 144.894 113.948 146.991 126.985 128.312C140.022 109.632 125.888 77.2489 95.4151 55.9817Z" fill="url(#paint7_linear_14_2802)"/>
<path d="M94.9396 56.5897C64.7567 35.5245 29.8236 33.4424 16.9144 51.9392C4.00523 70.4359 18.0083 102.507 48.1913 123.572C78.3742 144.638 113.307 146.72 126.216 128.223C139.126 109.726 125.123 77.6549 94.9396 56.5897Z" fill="#99570E"/>
<path d="M87.2498 67.6646C58.2248 47.4076 26.0751 43.3374 15.4415 58.5736C4.80792 73.8098 19.7171 102.583 48.742 122.84C77.767 143.097 109.917 147.167 120.55 131.931C131.184 116.695 116.275 87.9217 87.2498 67.6646Z" fill="url(#paint8_linear_14_2802)"/>
<path style="mix-blend-mode:multiply" d="M85.9216 69.5177C114.359 89.3556 129.236 117.366 119.829 132.829C120.076 132.546 120.311 132.216 120.53 131.916C131.172 116.679 116.247 87.8957 87.2369 67.6384C58.2265 47.3812 26.0598 43.335 15.4171 58.5716C15.2277 58.8896 14.9922 59.2192 14.8028 59.5371C26.0893 45.3889 57.5127 49.6971 85.9216 69.5177Z" fill="url(#paint9_linear_14_2802)"/>
</g>
<defs>
<linearGradient id="paint0_linear_14_2802" x1="1.17799" y1="55.478" x2="134.067" y2="148.224" gradientUnits="userSpaceOnUse">
<stop stop-color="#FFD66B"/>
<stop offset="0.14" stop-color="#FFEB65"/>
<stop offset="0.22" stop-color="#D87F20"/>
<stop offset="0.35" stop-color="#D87F20"/>
<stop offset="0.47" stop-color="#6C440F"/>
<stop offset="0.6" stop-color="#6C440F"/>
<stop offset="0.64" stop-color="#FFEB65"/>
<stop offset="0.73" stop-color="#FFEB65"/>
<stop offset="0.81" stop-color="#D87F20"/>
<stop offset="0.92" stop-color="#FFD66B"/>
<stop offset="1" stop-color="#DA9528"/>
</linearGradient>
<linearGradient id="paint1_linear_14_2802" x1="48.4454" y1="123.208" x2="104.197" y2="43.3256" gradientUnits="userSpaceOnUse">
<stop stop-color="#FFEB74"/>
<stop offset="1" stop-color="#FFD86C"/>
</linearGradient>
<linearGradient id="paint2_linear_14_2802" x1="58.7116" y1="98.7184" x2="91.4016" y2="51.8791" gradientUnits="userSpaceOnUse">
<stop stop-color="#FFEB74"/>
<stop offset="1" stop-color="#FFD86C"/>
</linearGradient>
<linearGradient id="paint3_linear_14_2802" x1="68.5581" y1="128.226" x2="93.3024" y2="92.772" gradientUnits="userSpaceOnUse">
<stop stop-color="#FFEB74"/>
<stop offset="1" stop-color="#FFD86C"/>
</linearGradient>
<linearGradient id="paint4_linear_14_2802" x1="105.416" y1="41.6741" x2="45.377" y2="127.7" gradientUnits="userSpaceOnUse">
<stop stop-color="#FFEB74"/>
<stop offset="1" stop-color="#FFD86C"/>
</linearGradient>
<linearGradient id="paint5_linear_14_2802" x1="105.431" y1="41.6532" x2="45.6258" y2="127.344" gradientUnits="userSpaceOnUse">
<stop stop-color="#FFEB74"/>
<stop offset="1" stop-color="#FFD86C"/>
</linearGradient>
<linearGradient id="paint6_linear_14_2802" x1="21.8701" y1="44.8531" x2="131.2" y2="121.156" gradientUnits="userSpaceOnUse">
<stop stop-color="#FFEB74"/>
<stop offset="1" stop-color="#FFD86A"/>
</linearGradient>
<linearGradient id="paint7_linear_14_2802" x1="21.3735" y1="44.5065" x2="131.696" y2="121.503" gradientUnits="userSpaceOnUse">
<stop stop-color="#FFEB74"/>
<stop offset="1" stop-color="#FFD86A"/>
</linearGradient>
<linearGradient id="paint8_linear_14_2802" x1="58.9845" y1="108.105" x2="85.0603" y2="70.7429" gradientUnits="userSpaceOnUse">
<stop stop-color="#FFC74E"/>
<stop offset="1" stop-color="#FF984D"/>
</linearGradient>
<linearGradient id="paint9_linear_14_2802" x1="75.0088" y1="85.2427" x2="88.4857" y2="65.9325" gradientUnits="userSpaceOnUse">
<stop stop-color="#FFEB74"/>
<stop offset="1" stop-color="#FFD86A"/>
</linearGradient>
<clipPath id="clip0_14_2802">
<rect width="133.088" height="173.021" fill="white" transform="translate(-44 114.339) rotate(-59.2181)"/>
</clipPath>
</defs>
</svg>
