<svg width="145" height="148" viewBox="0 0 145 148" fill="none" xmlns="http://www.w3.org/2000/svg">
<path style="mix-blend-mode:screen" fill-rule="evenodd" clip-rule="evenodd" d="M115.692 95.3164C100.005 116.584 70.0462 121.109 48.7788 105.422C27.5113 89.7361 22.9865 59.7769 38.6728 38.5094C54.3591 17.242 84.3183 12.7172 105.586 28.4035C126.853 44.0898 131.378 74.0489 115.692 95.3164Z" fill="url(#paint0_radial_14_1793)"/>
<path fill-rule="evenodd" clip-rule="evenodd" d="M34.0251 113.017C34.0251 113.017 34.8633 117.007 37.8788 118.851C40.4947 120.451 43.8266 119.945 43.8266 119.945L34.0274 113.018L34.0251 113.017Z" fill="url(#paint1_linear_14_1793)"/>
<path fill-rule="evenodd" clip-rule="evenodd" d="M101.335 90.0704C111.318 74.9882 106.791 56.6214 92.1637 46.0212C77.7182 35.1746 58.832 36.276 47.3708 50.2682C35.9096 64.2604 39.8695 84.6827 40.0559 88.8153C40.2423 92.9478 37.2741 97.2275 37.2741 97.2275L45.1828 109.718L59.4517 113.585C59.4517 113.585 62.6663 109.487 66.6672 108.443C70.6705 107.401 91.3514 105.153 101.335 90.0704Z" fill="url(#paint2_radial_14_1793)"/>
<g style="mix-blend-mode:screen">
<mask id="mask0_14_1793" style="mask-type:luminance" maskUnits="userSpaceOnUse" x="37" y="38" width="70" height="76">
<path d="M101.335 90.07C111.318 74.9878 106.791 56.621 92.1637 46.0207C77.7182 35.1742 58.832 36.2756 47.3708 50.2678C35.9096 64.26 39.8695 84.6823 40.0559 88.8148C40.2423 92.9474 37.2741 97.2271 37.2741 97.2271L45.1828 109.718L59.4517 113.585C59.4517 113.585 62.6663 109.487 66.6672 108.443C70.6705 107.4 91.3514 105.152 101.335 90.07Z" fill="white"/>
</mask>
<g mask="url(#mask0_14_1793)">
<path d="M119.978 66.3431L64.5361 25.4508L17.4652 89.2696L72.9069 130.162L119.978 66.3431Z" fill="#FFFF00"/>
<path d="M95.1015 94.6234C107.255 79.2404 106.223 58.1699 92.795 47.561C79.3674 36.9522 58.6296 40.8224 46.4758 56.2054C34.3221 71.5884 35.3547 92.659 48.7823 103.268C62.2099 113.877 82.9477 110.006 95.1015 94.6234Z" fill="#FFFF00"/>
<path d="M95.0362 94.5717C107.157 79.2303 106.127 58.217 92.7364 47.6371C79.3454 37.0572 58.664 40.9171 46.5431 56.2584C34.4223 71.5998 35.452 92.6131 48.843 103.193C62.2339 113.773 82.9153 109.913 95.0362 94.5717Z" fill="#FAFA00"/>
<path d="M94.9701 94.5192C107.057 79.2208 106.03 58.2657 92.6752 47.7148C79.3209 37.1638 58.6967 41.0124 46.6098 56.3108C34.5229 71.6091 35.5503 92.5642 48.9047 103.115C62.259 113.666 82.8832 109.818 94.9701 94.5192Z" fill="#F5F500"/>
<path d="M94.9037 94.4673C106.958 79.2106 105.933 58.3128 92.6155 47.7908C79.2977 37.2687 58.7299 41.107 46.676 56.3636C34.622 71.6203 35.6465 92.5181 48.9642 103.04C62.2819 113.562 82.8497 109.724 94.9037 94.4673Z" fill="#F0F000"/>
<path d="M94.8348 94.4129C106.856 79.1979 105.835 58.3582 92.5555 47.8661C79.2757 37.374 58.7653 41.2027 46.7443 56.4178C34.7232 71.6328 35.7437 92.4725 49.0235 102.965C62.3033 113.457 82.8137 109.628 94.8348 94.4129Z" fill="#ECEC00"/>
<path d="M94.7676 94.3598C106.755 79.1877 105.736 58.4063 92.4933 47.9431C79.2501 37.48 58.7969 41.2973 46.8098 56.4694C34.8227 71.6415 35.8409 92.4229 49.0841 102.886C62.3273 113.349 82.7805 109.532 94.7676 94.3598Z" fill="#E7E700"/>
<path d="M94.7023 94.3079C106.656 79.1775 105.641 58.4534 92.4346 48.0192C79.2281 37.585 58.8313 41.392 46.8771 56.5224C34.9229 71.6527 35.9382 92.3769 49.1448 102.811C62.3513 113.245 82.7481 109.438 94.7023 94.3079Z" fill="#E2E200"/>
<path d="M94.6357 94.2554C106.557 79.1667 105.545 58.4998 92.3748 48.0945C79.2048 37.6893 58.8644 41.486 46.9432 56.5746C35.022 71.6633 36.0342 92.3303 49.2042 102.736C62.3741 113.141 82.7145 109.344 94.6357 94.2554Z" fill="#DEDE00"/>
<path d="M94.5696 94.2029C106.457 79.1571 105.447 58.5485 92.3135 48.1722C79.1802 37.7959 58.897 41.5812 47.0097 56.627C35.1224 71.6727 36.1325 92.2814 49.2658 102.658C62.3991 113.034 82.6823 109.249 94.5696 94.2029Z" fill="#D9D900"/>
<path d="M94.5032 94.1504C106.358 79.1463 105.351 58.5949 92.2539 48.2476C79.1572 37.9002 58.9304 41.6752 47.076 56.6792C35.2217 71.6833 36.2288 92.2347 49.3254 102.582C62.4221 112.929 82.6489 109.154 94.5032 94.1504Z" fill="#D5D500"/>
<path d="M94.4368 94.0978C106.258 79.1355 105.254 58.6413 92.1941 48.3229C79.1341 38.0045 58.9637 41.7691 47.1423 56.7315C35.3208 71.6939 36.3249 92.188 49.3849 102.506C62.445 112.825 82.6154 109.06 94.4368 94.0978Z" fill="#D1D100"/>
<path d="M94.3708 94.0454C106.158 79.1259 105.156 58.6901 92.133 48.4006C79.1096 38.1111 58.9964 41.8644 47.2089 56.7838C35.4214 71.7033 36.4233 92.1391 49.4467 102.429C62.4701 112.718 82.5833 108.965 94.3708 94.0454Z" fill="#CDCD00"/>
<path d="M94.3043 93.9934C106.059 79.1157 105.06 58.7371 92.0732 48.4765C79.0865 38.216 59.0297 41.959 47.2751 56.8367C35.5205 71.7145 36.5194 92.0931 49.5062 102.354C62.493 112.614 82.5498 108.871 94.3043 93.9934Z" fill="#C8C800"/>
<path d="M94.2378 93.941C105.959 79.105 104.963 58.7836 92.0134 48.552C79.0632 38.3204 59.0628 42.0531 47.3412 56.8891C35.6196 71.7252 36.6155 92.0465 49.5656 102.278C62.5157 112.51 82.5161 108.777 94.2378 93.941Z" fill="#C4C400"/>
<path d="M94.1716 93.8885C105.859 79.0954 104.866 58.8323 91.9521 48.6297C79.0386 38.427 59.0954 42.1483 47.4077 56.9414C35.72 71.7346 36.7137 91.9976 49.6272 102.2C62.5407 112.403 82.4839 108.682 94.1716 93.8885Z" fill="#C0C000"/>
<path d="M94.1028 93.8341C105.758 79.0827 104.768 58.8777 91.8923 48.705C79.0166 38.5322 59.1309 42.244 47.4761 56.9954C35.8213 71.7469 36.811 91.9519 49.6866 102.125C62.5622 112.297 82.448 108.586 94.1028 93.8341Z" fill="#BCBC00"/>
<path d="M94.0363 93.7816C105.658 79.0718 104.671 58.9241 91.8325 48.7803C78.9935 38.6365 59.1641 42.338 47.5423 57.0477C35.9205 71.7575 36.9072 91.9052 49.7462 102.049C62.5851 112.193 82.4145 108.491 94.0363 93.7816Z" fill="#B8B800"/>
<path d="M93.9702 93.7298C105.558 79.063 104.574 58.9735 91.7712 48.8587C78.9689 38.7439 59.1967 42.434 47.6088 57.1008C36.0209 71.7676 37.0054 91.857 49.8078 101.972C62.6101 112.087 82.3823 108.397 93.9702 93.7298Z" fill="#B5B500"/>
<path d="M93.9039 93.6773C105.459 79.0522 104.477 59.02 91.7116 48.9341C78.9459 38.8482 59.2301 42.5279 47.6752 57.1531C36.1202 71.7782 37.1017 91.8104 49.8674 101.896C62.6331 111.982 82.3489 108.302 93.9039 93.6773Z" fill="#B1B100"/>
<path d="M93.8374 93.6246C105.359 79.0412 104.381 59.0662 91.6519 49.0093C78.9228 38.9524 59.2634 42.6218 47.7414 57.2052C36.2194 71.7886 37.1979 91.7636 49.9269 101.821C62.656 111.877 82.3154 108.208 93.8374 93.6246Z" fill="#ADAD00"/>
<path d="M93.7714 93.5723C105.259 79.0318 104.283 59.1151 91.5907 49.0871C78.8983 39.0591 59.2961 42.7172 47.808 57.2576C36.3199 71.7981 37.2962 91.7148 49.9887 101.743C62.6811 111.771 82.2833 108.113 93.7714 93.5723Z" fill="#AAAA00"/>
<path d="M93.7049 93.5196C105.16 79.0208 104.187 59.1614 91.531 49.1623C78.8752 39.1633 59.3294 42.811 47.8742 57.3098C36.4191 71.8086 37.3924 91.668 50.0482 101.667C62.704 111.666 82.2498 108.018 93.7049 93.5196Z" fill="#A6A600"/>
<path d="M93.6384 93.4679C105.061 79.0108 104.09 59.2086 91.4711 49.2385C78.8519 39.2684 59.3625 42.9058 47.9403 57.3629C36.5181 71.82 37.4884 91.6222 50.1076 101.592C62.7268 111.562 82.2162 107.925 93.6384 93.4679Z" fill="#A2A200"/>
<path d="M93.5722 93.4146C104.961 79.0004 103.992 59.2565 91.4098 49.3154C78.8273 39.3742 59.3951 43.0003 48.0068 57.4144C36.6185 71.8286 37.5866 91.5725 50.1692 101.514C62.7517 111.455 82.1839 107.829 93.5722 93.4146Z" fill="#9F9F00"/>
<path d="M93.5058 93.3629C104.861 78.9904 103.896 59.3037 91.3501 49.3915C78.8042 39.4793 59.4284 43.095 48.073 57.4675C36.7177 71.84 37.6828 91.5266 50.2287 101.439C62.7746 111.351 82.1504 107.735 93.5058 93.3629Z" fill="#9C9C00"/>
<path d="M93.437 93.3084C104.759 78.9776 103.798 59.349 91.2903 49.4667C78.7823 39.5844 59.4639 43.1906 48.1414 57.5214C36.819 71.8522 37.7801 91.4808 50.2882 101.363C62.7962 111.245 82.1146 107.639 93.437 93.3084Z" fill="#989800"/>
<path d="M93.3708 93.256C104.659 78.9682 103.7 59.3979 91.229 49.5445C78.7576 39.6911 59.4964 43.286 48.2079 57.5739C36.9194 71.8617 37.8784 91.432 50.3497 101.285C62.8211 111.139 82.0823 107.544 93.3708 93.256Z" fill="#959500"/>
<path d="M93.3045 93.2041C104.56 78.9579 103.604 59.4449 91.1694 49.6205C78.7346 39.7961 59.5298 43.3806 48.2743 57.6267C37.0187 71.8729 37.9746 91.3859 50.4094 101.21C62.8441 111.035 82.0489 107.45 93.3045 93.2041Z" fill="#929200"/>
<path d="M93.2381 93.1509C104.461 78.9464 103.508 59.4906 91.1096 49.6952C78.7115 39.8997 59.5631 43.4739 48.3405 57.6784C37.1179 71.8828 38.0708 91.3386 50.4689 101.134C62.867 110.93 82.0154 107.355 93.2381 93.1509Z" fill="#8F8F00"/>
<path d="M93.1725 93.0991C104.362 78.9363 103.412 59.5378 91.0507 49.7713C78.6893 40.0047 59.5973 43.5686 48.4076 57.7314C37.2179 71.8942 38.1678 91.2927 50.5293 101.059C62.8908 110.826 81.9828 107.262 93.1725 93.0991Z" fill="#8B8B00"/>
<path d="M93.1053 93.0459C104.261 78.926 103.313 59.5858 90.9885 49.8482C78.6636 40.1106 59.6288 43.6631 48.4731 57.783C37.3173 71.9028 38.2651 91.2431 50.5899 100.981C62.9148 110.718 81.9496 107.166 93.1053 93.0459Z" fill="#888800"/>
<path d="M93.039 92.9941C104.162 78.9159 103.217 59.6329 90.9289 49.9243C78.6407 40.2156 59.6622 43.7578 48.5394 57.836C37.4166 71.9141 38.3614 91.1971 50.6496 100.906C62.9378 110.614 81.9162 107.072 93.039 92.9941Z" fill="#858500"/>
<path d="M92.9726 92.9416C104.062 78.9051 103.121 59.6793 90.8691 49.9996C78.6175 40.3199 59.6955 43.8518 48.6056 57.8883C37.5158 71.9247 38.4575 91.1505 50.7091 100.83C62.9607 110.51 81.8827 106.978 92.9726 92.9416Z" fill="#828200"/>
<path d="M92.9075 92.8898C103.963 78.8963 103.024 59.7288 90.809 50.078C78.594 40.4273 59.7292 43.9478 48.6732 57.9413C37.6173 71.9348 38.5568 91.1023 50.7718 100.753C62.9868 110.404 81.8516 106.883 92.9075 92.8898Z" fill="#808000"/>
<path d="M92.8401 92.8364C103.863 78.8846 102.927 59.7744 90.7482 50.1525C78.5699 40.5307 59.7615 44.0409 48.7385 57.9927C37.7155 71.9446 38.652 91.0548 50.8304 100.677C63.0087 110.298 81.8171 106.788 92.8401 92.8364Z" fill="#7D7D00"/>
<path d="M92.7748 92.7847C103.765 78.8745 102.831 59.8216 90.6896 50.2287C78.5479 40.6358 59.7959 44.1357 48.8058 58.0458C37.8157 71.956 38.7493 91.0089 50.891 100.602C63.0327 110.195 81.7847 106.695 92.7748 92.7847Z" fill="#7A7A00"/>
<path d="M92.7051 92.7304C103.661 78.8632 102.731 59.8693 90.6271 50.3064C78.5233 40.7435 59.8295 44.2328 48.8734 58.1C37.9172 71.9672 38.8476 90.961 50.9514 100.524C63.0552 110.087 81.749 106.598 92.7051 92.7304Z" fill="#777700"/>
<path d="M92.6384 92.6778C103.562 78.8523 102.634 59.9157 90.5671 50.3817C78.5 40.8477 59.8626 44.3267 48.9394 58.1522C38.0162 71.9777 38.9435 90.9143 51.0107 100.448C63.0778 109.982 81.7152 106.503 92.6384 92.6778Z" fill="#747400"/>
<path d="M92.5721 92.6253C103.462 78.8415 102.538 59.9621 90.5075 50.457C78.477 40.952 59.896 44.4206 49.0057 58.2045C38.1154 71.9883 39.0398 90.8677 51.0703 100.373C63.1009 109.878 81.6818 106.409 92.5721 92.6253Z" fill="#727200"/>
<path d="M92.506 92.5728C103.362 78.8319 102.44 60.0108 90.4462 50.5347C78.4523 41.0586 59.9286 44.5159 49.0722 58.2568C38.2159 71.9977 39.138 90.8187 51.1319 100.295C63.1258 109.771 81.6496 106.314 92.506 92.5728Z" fill="#6F6F00"/>
<path d="M92.4406 92.5209C103.264 78.8217 102.345 60.0578 90.3876 50.6107C78.4303 41.1635 59.9629 44.6105 49.1395 58.3097C38.3161 72.0089 39.2353 90.7727 51.1925 100.22C63.1498 109.667 81.6172 106.22 92.4406 92.5209Z" fill="#6D6D00"/>
<path d="M92.3743 92.4683C103.165 78.8108 102.249 60.1043 90.328 50.686C78.4073 41.2678 59.9963 44.7044 49.2059 58.362C38.4154 72.0195 39.3316 90.726 51.2522 100.144C63.1728 109.562 81.5838 106.126 92.3743 92.4683Z" fill="#6A6A00"/>
<path d="M92.307 92.4158C103.064 78.8013 102.15 60.153 90.2656 50.7637C78.3816 41.3744 60.0278 44.7997 49.2713 58.4143C38.5147 72.0288 39.4287 90.6771 51.3127 100.066C63.1967 109.456 81.5505 106.03 92.307 92.4158Z" fill="#686800"/>
<path d="M92.2407 92.3633C102.964 78.7905 102.053 60.1994 90.206 50.8391C78.3586 41.4787 60.0612 44.8937 49.3376 58.4666C38.614 72.0394 39.525 90.6305 51.3723 99.9908C63.2197 109.351 81.5171 105.936 92.2407 92.3633Z" fill="#656500"/>
<path d="M92.1741 92.3109C102.865 78.7797 101.957 60.2459 90.146 50.9145C78.3353 41.5831 60.0943 44.9877 49.4036 58.5189C38.7129 72.0501 39.6209 90.5839 51.4316 99.9153C63.2424 109.247 81.4834 105.842 92.1741 92.3109Z" fill="#636300"/>
<path d="M92.109 92.259C102.766 78.7708 101.86 60.2953 90.0858 50.9928C78.3117 41.6904 60.1279 45.0836 49.4712 58.5719C38.8144 72.0601 39.7202 90.5356 51.4943 99.8381C63.2684 109.141 81.4522 105.747 92.109 92.259Z" fill="#616100"/>
<path d="M92.0416 92.2058C102.665 78.7593 101.763 60.341 90.0251 51.0675C78.2876 41.794 60.1602 45.1769 49.5364 58.6235C38.9126 72.0701 39.8154 90.4883 51.5529 99.7618C63.2904 109.035 81.4178 105.652 92.0416 92.2058Z" fill="#5E5E00"/>
<path d="M91.9737 92.1521C102.565 78.7472 101.666 60.387 89.9663 51.1434C78.2667 41.8999 60.1967 45.2733 49.6058 58.6782C39.0149 72.083 39.9137 90.4432 51.6133 99.6868C63.3129 108.93 81.3829 105.557 91.9737 92.1521Z" fill="#5C5C00"/>
<path d="M91.9077 92.0997C102.465 78.7378 101.568 60.4359 89.9051 51.2212C78.2422 42.0066 60.2294 45.3687 49.6724 58.7306C39.1155 72.0925 40.0121 90.3944 51.675 99.6091C63.338 108.824 81.3507 105.462 91.9077 92.0997Z" fill="#5A5A00"/>
<path d="M91.8413 92.0471C102.365 78.7268 101.472 60.4822 89.8454 51.2965C78.219 42.1108 60.2627 45.4625 49.7386 58.7828C39.2146 72.103 40.1082 90.3477 51.7345 99.5333C63.3609 108.719 81.3172 105.367 91.8413 92.0471Z" fill="#585800"/>
<path d="M91.7749 91.9953C102.266 78.7167 101.375 60.5293 89.7857 51.3726C78.1961 42.2158 60.2961 45.5572 49.805 58.8358C39.3139 72.1143 40.2045 90.3017 51.7942 99.4585C63.3839 108.615 81.2839 105.274 91.7749 91.9953Z" fill="#565600"/>
<path d="M91.7077 91.9422C102.165 78.7065 101.276 60.5774 89.7234 51.4496C78.1703 42.3218 60.3275 45.6519 49.8704 58.8875C39.4132 72.1231 40.3016 90.2522 51.8547 99.38C63.4077 108.508 81.2505 105.178 91.7077 91.9422Z" fill="#545400"/>
<path d="M91.6422 91.8902C102.066 78.6963 101.181 60.6244 89.6646 51.5256C78.1482 42.4267 60.3618 45.7464 49.9376 58.9404C39.5134 72.1343 40.3988 90.2062 51.9152 99.305C63.4316 108.404 81.218 105.084 91.6422 91.8902Z" fill="#525200"/>
<path d="M91.5747 91.8369C101.966 78.6847 101.084 60.6701 89.6038 51.6002C78.124 42.5302 60.394 45.8396 50.0027 58.9919C39.6114 72.1441 40.4938 90.1587 51.9736 99.2286C63.4534 108.299 81.1834 104.989 91.5747 91.8369Z" fill="#505000"/>
<path d="M91.5096 91.7852C101.867 78.6759 100.987 60.7196 89.5436 51.6786C78.1004 42.6376 60.4276 45.9357 50.0703 59.045C39.7129 72.1543 40.5932 90.1106 52.0363 99.1516C63.4795 108.193 81.1523 104.895 91.5096 91.7852Z" fill="#4E4E00"/>
<path d="M91.4433 91.7326C101.768 78.665 100.89 60.7659 89.484 51.7539C78.0774 42.7419 60.461 46.0296 50.1366 59.0972C39.8122 72.1648 40.6894 90.0639 52.096 99.0759C63.5025 108.088 81.1189 104.8 91.4433 91.7326Z" fill="#4C4C00"/>
<path d="M91.3769 91.6801C101.668 78.6542 100.794 60.8124 89.4242 51.8293C78.0543 42.8462 60.4943 46.1236 50.2029 59.1495C39.9114 72.1754 40.7856 90.0172 52.1555 99.0003C63.5254 107.983 81.0854 104.706 91.3769 91.6801Z" fill="#4A4A00"/>
<path d="M91.3097 91.6276C101.567 78.6446 100.695 60.8611 89.362 51.9069C78.0287 42.9528 60.5259 46.2188 50.2684 59.2018C40.0108 72.1848 40.8829 89.9683 52.2161 98.9224C63.5494 107.877 81.0522 104.611 91.3097 91.6276Z" fill="#484800"/>
<path d="M91.2409 91.5732C101.466 78.632 100.598 60.9065 89.3021 51.9823C78.0068 43.0581 60.5614 46.3146 50.3368 59.2558C40.1122 72.1971 40.9802 89.9226 52.2756 98.8468C63.5709 107.771 81.0163 104.515 91.2409 91.5732Z" fill="#464600"/>
<path d="M91.1756 91.5214C101.367 78.6218 100.502 60.9536 89.2435 52.0583C77.9848 43.163 60.5958 46.4092 50.4041 59.3088C40.2124 72.2084 41.0774 89.8766 52.3362 98.7719C63.5949 107.667 80.9839 104.421 91.1756 91.5214Z" fill="#444400"/>
<path d="M91.1094 91.469C101.267 78.6123 100.404 61.0023 89.1822 52.136C77.9601 43.2697 60.6283 46.5045 50.4706 59.3612C40.3128 72.2178 41.1757 89.8278 52.3978 98.6941C63.6199 107.56 80.9517 104.326 91.1094 91.469Z" fill="#434300"/>
<path d="M91.0428 91.4165C101.168 78.6015 100.308 61.0488 89.1224 52.2114C77.9369 43.3741 60.6615 46.5985 50.5367 59.4135C40.4119 72.2285 41.2717 89.7812 52.4572 98.6186C63.6426 107.456 80.918 104.231 91.0428 91.4165Z" fill="#414100"/>
<path d="M90.9764 91.3638C101.068 78.5906 100.211 61.0951 89.0626 52.2867C77.9138 43.4782 60.6948 46.6924 50.6029 59.4657C40.511 72.239 41.3679 89.7344 52.5167 98.5428C63.6655 107.351 80.8845 104.137 90.9764 91.3638Z" fill="#3F3F00"/>
<path d="M90.9102 91.3121C100.968 78.5817 100.114 61.1446 89.0013 52.3651C77.8891 43.5856 60.7273 46.7884 50.6694 59.5187C40.6115 72.2491 41.4661 89.6862 52.5783 98.4657C63.6905 107.245 80.8523 104.042 90.9102 91.3121Z" fill="#3E3E00"/>
<path d="M90.8439 91.2588C100.869 78.5702 100.017 61.1903 88.9417 52.4397C77.8662 43.6892 60.7608 46.8816 50.7357 59.5703C40.7107 72.2589 41.5624 89.6388 52.638 98.3894C63.7135 107.14 80.8189 103.947 90.8439 91.2588Z" fill="#3C3C00"/>
<path d="M90.7775 91.207C100.77 78.5601 99.9209 61.2374 88.882 52.5158C77.8431 43.7942 60.794 46.9763 50.802 59.6233C40.8099 72.2703 41.6585 89.5929 52.6975 98.3145C63.7364 107.036 80.7854 103.854 90.7775 91.207Z" fill="#3B3B00"/>
<path d="M90.7115 91.1546C100.67 78.5506 99.8231 61.2863 88.8208 52.5936C77.8185 43.9009 60.8267 47.0717 50.8686 59.6757C40.9104 72.2797 41.7569 89.5441 52.7592 98.2368C63.7615 106.929 80.7533 103.759 90.7115 91.1546Z" fill="#393900"/>
<path d="M90.6448 91.102C100.57 78.5397 99.7265 61.3325 88.7609 52.6688C77.7952 44.0051 60.8598 47.1655 50.9346 59.7279C41.0094 72.2902 41.8528 89.4973 52.8185 98.1611C63.7842 106.825 80.7196 103.664 90.6448 91.102Z" fill="#383800"/>
<path d="M90.5785 91.0495C100.471 78.5289 99.6303 61.379 88.7012 52.7442C77.7722 44.1095 60.8932 47.2596 51.0009 59.7802C41.1086 72.3009 41.9491 89.4507 52.8781 98.0855C63.8072 106.72 80.6862 103.57 90.5785 91.0495Z" fill="#363600"/>
<path d="M90.5098 90.9951C100.368 78.5174 99.5309 61.4267 88.6397 52.8218C77.7486 44.217 60.9278 47.3566 51.0695 59.8343C41.2111 72.312 42.0484 89.4027 52.9395 98.0076C63.8307 106.612 80.6514 103.473 90.5098 90.9951Z" fill="#353500"/>
<path d="M90.4435 90.9433C100.269 78.5073 99.4346 61.4737 88.5801 52.8978C77.7256 44.3219 60.9612 47.4512 51.1358 59.8872C41.3104 72.3232 42.1447 89.3567 52.9992 97.9326C63.8537 106.509 80.6181 103.379 90.4435 90.9433Z" fill="#333300"/>
<path d="M90.377 90.8908C100.17 78.4964 99.3383 61.5202 88.5204 52.9732C77.7025 44.4262 60.9945 47.5452 51.202 59.9395C41.4096 72.3338 42.2408 89.3101 53.0587 97.857C63.8766 106.404 80.5846 103.285 90.377 90.8908Z" fill="#323200"/>
<path d="M90.3109 90.8383C100.069 78.4869 99.2404 61.5689 88.4591 53.0509C77.6779 44.5329 61.0271 47.6404 51.2685 59.9918C41.51 72.3432 42.3391 89.2612 53.1203 97.7792C63.9015 106.297 80.5523 103.19 90.3109 90.8383Z" fill="#313100"/>
<path d="M90.2446 90.7857C99.9702 78.476 99.1441 61.6153 88.3995 53.1262C77.6549 44.6372 61.0605 47.7344 51.3349 60.0441C41.6093 72.3538 42.4353 89.2145 53.1799 97.7036C63.9246 106.193 80.519 103.095 90.2446 90.7857Z" fill="#2F2F00"/>
<path d="M90.1779 90.7332C99.8706 78.4651 99.0475 61.6617 88.3395 53.2015C77.6315 44.7414 61.0935 47.8283 51.4008 60.0963C41.7082 72.3643 42.5312 89.1678 53.2392 97.6279C63.9472 106.088 80.4852 103.001 90.1779 90.7332Z" fill="#2E2E00"/>
<path d="M90.1118 90.6814C99.7706 78.4564 98.9497 61.7112 88.2783 53.28C77.607 44.8488 61.1262 47.9244 51.4675 60.1494C41.8087 72.3745 42.6296 89.1197 53.301 97.5509C63.9723 105.982 80.4531 102.907 90.1118 90.6814Z" fill="#2D2D00"/>
<path d="M90.0454 90.6282C99.6712 78.4448 98.8533 61.7569 88.2186 53.3546C77.5839 44.9524 61.1595 48.0176 51.5337 60.201C41.9079 72.3843 42.7258 89.0723 53.3605 97.4745C63.9952 105.877 80.4196 102.812 90.0454 90.6282Z" fill="#2B2B00"/>
<path d="M89.9791 90.5765C99.572 78.4348 98.7571 61.8041 88.159 53.4308C77.5609 45.0575 61.1929 48.1123 51.6 60.254C42.0071 72.3957 42.822 89.0264 53.4201 97.3997C64.0182 105.773 80.3862 102.718 89.9791 90.5765Z" fill="#2A2A00"/>
<path d="M89.9129 90.5239C99.4719 78.4252 98.6592 61.8527 88.0977 53.5084C77.5363 45.164 61.2255 48.2075 51.6665 60.3063C42.1076 72.405 42.9203 88.9775 53.4817 97.3218C64.0432 105.666 80.354 102.623 89.9129 90.5239Z" fill="#292900"/>
<path d="M89.8441 90.4695C99.3701 78.4124 98.5614 61.8981 88.0379 53.5836C77.5143 45.2692 61.2609 48.3032 51.7349 60.3603C42.2089 72.4173 43.0176 88.9317 53.5412 97.2461C64.0647 105.561 80.3181 102.527 89.8441 90.4695Z" fill="#282800"/>
<path d="M89.7788 90.4176C99.2718 78.4022 98.4662 61.9451 87.9792 53.6597C77.4923 45.3742 61.2953 48.3979 51.8022 60.4132C42.3092 72.4286 43.1149 88.8857 53.6018 97.1712C64.0887 105.457 80.2857 102.433 89.7788 90.4176Z" fill="#272700"/>
<path d="M89.7115 90.3644C99.1706 78.392 98.3672 61.9932 87.9169 53.7367C77.4666 45.4801 61.3268 48.4925 51.8676 60.4649C42.4085 72.4373 43.212 88.8361 53.6623 97.0927C64.1126 105.349 80.2524 102.337 89.7115 90.3644Z" fill="#262600"/>
<path d="M89.645 90.3127C99.0712 78.3819 98.2707 62.0403 87.857 53.8128C77.4433 45.5852 61.3599 48.5872 51.9337 60.5179C42.5075 72.4486 43.308 88.7902 53.7217 97.0178C64.1354 105.245 80.2187 102.243 89.645 90.3127Z" fill="#252500"/>
<path d="M89.5785 90.2595C98.9718 78.3704 98.1743 62.0861 87.7973 53.8874C77.4202 45.6888 61.3932 48.6805 52 60.5695C42.6067 72.4586 43.4042 88.7429 53.7812 96.9415C64.1582 105.14 80.1852 102.149 89.5785 90.2595Z" fill="#242400"/>
<path d="M89.5125 90.2076C98.8718 78.3615 98.0765 62.1355 87.7361 53.9658C77.3957 45.7961 61.4259 48.7764 52.0666 60.6225C42.7072 72.4686 43.5025 88.6946 53.8429 96.8643C64.1833 105.034 80.1531 102.054 89.5125 90.2076Z" fill="#232300"/>
<path d="M89.446 90.1551C98.7724 78.3506 97.9801 62.1818 87.6764 54.0411C77.3726 45.9003 61.4592 48.8703 52.1328 60.6747C42.8064 72.4791 43.5987 88.6479 53.9025 96.7887C64.2062 104.929 80.1196 101.959 89.446 90.1551Z" fill="#222200"/>
<path d="M89.3797 90.1025C98.6732 78.3398 97.8839 62.2283 87.6167 54.1164C77.3496 46.0046 61.4926 48.9643 52.1991 60.727C42.9057 72.4897 43.695 88.6013 53.9621 96.7131C64.2293 104.825 80.0863 101.865 89.3797 90.1025Z" fill="#212100"/>
<path d="M89.3136 90.05C98.5731 78.3302 97.786 62.277 87.5555 54.1941C77.325 46.1112 61.5252 49.0595 52.2656 60.7793C43.0061 72.4991 43.7932 88.5524 54.0237 96.6352C64.2542 104.718 80.054 101.77 89.3136 90.05Z" fill="#202000"/>
<path d="M89.2471 89.9982C98.4737 78.3201 97.6896 62.3241 87.4957 54.2702C77.3019 46.2163 61.5585 49.1542 52.3319 60.8323C43.1052 72.5104 43.8894 88.5064 54.0832 96.5604C64.2771 104.614 80.0205 101.676 89.2471 89.9982Z" fill="#1F1F00"/>
<path d="M89.1806 89.9457C98.3742 78.3093 97.5931 62.3706 87.4359 54.3456C77.2786 46.3206 61.5916 49.2482 52.3979 60.8846C43.2043 72.521 43.9854 88.4598 54.1426 96.4848C64.2999 104.51 79.9869 101.582 89.1806 89.9457Z" fill="#1E1E00"/>
<path d="M89.1121 89.8914C98.2719 78.2979 97.494 62.4182 87.3746 54.4232C77.2553 46.4281 61.6265 49.3452 52.4668 60.9387C43.307 72.5322 44.0849 88.4118 54.2043 96.4069C64.3236 104.402 79.9524 101.485 89.1121 89.8914Z" fill="#1D1D00"/>
<path d="M89.0456 89.8388C98.1724 78.2871 97.3975 62.4647 87.3148 54.4986C77.232 46.5324 61.6597 49.4392 52.5329 60.991C43.4061 72.5428 44.181 88.3652 54.2637 96.3313C64.3464 104.297 79.9188 101.391 89.0456 89.8388Z" fill="#1C1C00"/>
<path d="M88.9791 89.7863C98.073 78.2762 97.3011 62.511 87.255 54.5739C77.2089 46.6367 61.6929 49.5331 52.5991 61.0432C43.5052 72.5533 44.2771 88.3184 54.3232 96.2556C64.3693 104.193 79.8853 101.296 88.9791 89.7863Z" fill="#1B1B00"/>
<path d="M88.9131 89.7345C97.973 78.2673 97.2033 62.5605 87.1939 54.6523C77.1844 46.744 61.7256 49.6291 52.6657 61.0963C43.6058 72.5634 44.3755 88.2703 54.3849 96.1785C64.3944 104.087 79.8532 101.202 88.9131 89.7345Z" fill="#1A1A00"/>
<path d="M88.8467 89.6812C97.8737 78.2558 97.1069 62.6062 87.1341 54.7269C77.1613 46.8476 61.7589 49.7223 52.7319 61.1478C43.7049 72.5733 44.4716 88.2229 54.4445 96.1022C64.4173 103.981 79.8197 101.107 88.8467 89.6812Z" fill="#1A1A00"/>
<path d="M88.7804 89.6294C97.7744 78.2457 97.0107 62.6533 87.0745 54.803C77.1383 46.9526 61.7923 49.817 52.7983 61.2008C43.8042 72.5846 44.5679 88.177 54.5041 96.0273C64.4403 103.878 79.7863 101.013 88.7804 89.6294Z" fill="#191900"/>
<path d="M88.7142 89.5771C97.6743 78.2362 96.9128 62.7022 87.0132 54.8808C77.1137 47.0594 61.8249 49.9124 52.8647 61.2533C43.9046 72.5941 44.6662 88.1282 54.5657 95.9496C64.4653 103.771 79.754 100.918 88.7142 89.5771Z" fill="#181800"/>
<path d="M88.6476 89.5244C97.5748 78.2253 96.8163 62.7485 86.9534 54.956C77.0904 47.1635 61.858 50.0063 52.9308 61.3054C44.0036 72.6046 44.7622 88.0814 54.6251 95.8738C64.488 103.666 79.7204 100.824 88.6476 89.5244Z" fill="#171700"/>
<path d="M88.5812 89.4719C97.4755 78.2144 96.7199 62.7949 86.8936 55.0314C77.0673 47.2678 61.8913 50.1002 52.9971 61.3577C44.1028 72.6152 44.8584 88.0347 54.6846 95.7982C64.5109 103.562 79.6869 100.729 88.5812 89.4719Z" fill="#171700"/>
<path d="M88.5151 89.4194C97.3755 78.2049 96.6221 62.8436 86.8325 55.109C77.0428 47.3745 61.924 50.1955 53.0637 61.41C44.2033 72.6245 44.9567 87.9858 54.7464 95.7204C64.536 103.455 79.6548 100.634 88.5151 89.4194Z" fill="#161600"/>
<path d="M88.4487 89.3676C97.2761 78.1948 96.5257 62.8907 86.7727 55.1851C77.0197 47.4795 61.9573 50.2902 53.1299 61.463C44.3025 72.6359 45.0529 87.9399 54.8059 95.6455C64.5589 103.351 79.6213 100.54 88.4487 89.3676Z" fill="#151500"/>
<path d="M88.3809 89.3132C97.1753 78.182 96.429 62.9361 86.7139 55.2604C76.9987 47.5847 61.9938 50.3859 53.1993 61.517C44.4048 72.6482 45.1512 87.8941 54.8663 95.5698C64.5814 103.246 79.5864 100.444 88.3809 89.3132Z" fill="#141400"/>
<path d="M88.3137 89.2607C97.0743 78.1725 96.3301 62.9849 86.6516 55.3381C76.9731 47.6913 62.0253 50.4812 53.2648 61.5694C44.5043 72.6576 45.2484 87.8453 54.9269 95.492C64.6054 103.139 79.5532 100.349 88.3137 89.2607Z" fill="#141400"/>
<path d="M88.2473 89.2081C96.9749 78.1616 96.2337 63.0312 86.5919 55.4134C76.95 47.7956 62.0586 50.5751 53.331 61.6216C44.6034 72.6681 45.3446 87.7986 54.9865 95.4164C64.6283 103.034 79.5197 100.255 88.2473 89.2081Z" fill="#131300"/>
<path d="M88.1807 89.1556C96.8754 78.1508 96.1372 63.0776 86.532 55.4888C76.9268 47.8999 62.0918 50.6691 53.3971 61.6739C44.7025 72.6787 45.4406 87.7519 55.0459 95.3408C64.6511 102.93 79.4861 100.16 88.1807 89.1556Z" fill="#131300"/>
<path d="M88.1159 89.1039C96.7767 78.142 96.0407 63.1271 86.4721 55.5672C76.9035 48.0072 62.1257 50.7651 53.465 61.7269C44.8042 72.6888 45.5402 87.7037 55.1088 95.2637C64.6774 102.824 79.4552 100.066 88.1159 89.1039Z" fill="#121200"/>
<path d="M88.0483 89.0506C96.676 78.1304 95.9431 63.1728 86.4111 55.6418C76.8792 48.1108 62.1578 50.8583 53.53 61.7785C44.9022 72.6987 45.6351 87.6563 55.1671 95.1873C64.6991 102.718 79.4205 99.9708 88.0483 89.0506Z" fill="#111100"/>
<path d="M87.9829 88.9988C96.5778 78.1202 95.8478 63.2199 86.3525 55.7178C76.8571 48.2158 62.1921 50.9529 53.5973 61.8315C45.0024 72.71 45.7324 87.6104 55.2277 95.1124C64.7231 102.614 79.3881 99.8773 87.9829 88.9988Z" fill="#111100"/>
<path d="M87.9158 88.9462C96.4767 78.1106 95.7489 63.2685 86.2902 55.7954C76.8315 48.3223 62.2237 51.0481 53.6628 61.8837C45.1019 72.7193 45.8297 87.5614 55.2884 95.0345C64.7471 102.508 79.3548 99.7818 87.9158 88.9462Z" fill="#101000"/>
<path d="M87.8493 88.8937C96.3773 78.0998 95.6525 63.315 86.2305 55.8708C76.8084 48.4267 62.257 51.1422 53.729 61.9361C45.201 72.7299 45.9258 87.5148 55.3479 94.9589C64.7699 102.403 79.3213 99.6876 87.8493 88.8937Z" fill="#101000"/>
<path d="M87.785 88.839C96.28 78.0868 95.5582 63.3592 86.1728 55.944C76.7874 48.5288 62.2924 51.2339 53.7973 61.9861C45.3023 72.7383 46.024 87.4659 55.4095 94.8811C64.7949 102.296 79.2899 99.5912 87.785 88.839Z" fill="#0F0F00"/>
<path d="M87.7169 88.7888C96.178 78.0795 95.4584 63.4102 86.1096 56.0239C76.7608 48.6377 62.323 51.3315 53.8619 62.0407C45.4007 72.75 46.1203 87.4193 55.4691 94.8055C64.8179 102.192 79.2557 99.498 87.7169 88.7888Z" fill="#0F0F00"/>
<path d="M87.649 88.7351C96.0772 78.0675 95.3616 63.4563 86.0507 56.0999C76.7398 48.7436 62.3594 51.4279 53.9312 62.0954C45.5031 72.763 46.2186 87.3743 55.5295 94.7306C64.8404 102.087 79.2208 99.4026 87.649 88.7351Z" fill="#0E0E00"/>
<path d="M87.5814 88.6818C95.9766 78.0559 95.264 63.5019 85.9898 56.1745C76.7155 48.8472 62.3915 51.5211 53.9963 62.147C45.601 72.7729 46.3136 87.3269 55.5878 94.6543C64.8621 101.982 79.1861 99.3077 87.5814 88.6818Z" fill="#0E0E00"/>
<path d="M87.5152 88.63C95.8765 78.0471 95.1661 63.5514 85.9285 56.253C76.6909 48.9545 62.4241 51.6171 54.0627 62.2C45.7014 72.783 46.4118 87.2787 55.6494 94.5771C64.8871 101.876 79.1539 99.213 87.5152 88.63Z" fill="#0D0D00"/>
<path d="M87.4489 88.5775C95.7773 78.0362 95.0699 63.5978 85.8689 56.3283C76.6679 49.0587 62.4575 51.711 54.1291 62.2523C45.8007 72.7935 46.5081 87.232 55.7091 94.5015C64.9101 101.771 79.1205 99.1187 87.4489 88.5775Z" fill="#0D0D00"/>
<path d="M87.3824 88.5249C95.6779 78.0254 94.9735 63.6442 85.8091 56.4036C76.6448 49.163 62.4908 51.805 54.1953 62.3045C45.8998 72.8041 46.6042 87.1853 55.7686 94.4259C64.933 101.666 79.087 99.0245 87.3824 88.5249Z" fill="#0C0C00"/>
<path d="M87.3164 88.4725C95.5779 78.0159 94.8757 63.693 85.748 56.4813C76.6202 49.2697 62.5234 51.9003 54.2619 62.3569C46.0004 72.8135 46.7026 87.1365 55.8303 94.3481C64.9581 101.56 79.0549 98.9291 87.3164 88.4725Z" fill="#0C0C00"/>
<path d="M87.2511 88.4206C95.4797 78.0057 94.7804 63.74 85.6893 56.5574C76.5982 49.3747 62.5578 51.9949 54.3292 62.4099C46.1006 72.8248 46.7999 87.0905 55.891 94.2731C64.9821 101.456 79.0225 98.8356 87.2511 88.4206Z" fill="#0B0B00"/>
<path d="M87.1844 88.3681C95.38 77.9949 94.6838 63.7865 85.6294 56.6327C76.5749 49.479 62.5909 52.0889 54.3952 62.4622C46.1996 72.8354 46.8958 87.0438 55.9503 94.1976C65.0047 101.351 78.9887 98.7414 87.1844 88.3681Z" fill="#0B0B00"/>
<path d="M87.1172 88.3156C95.279 77.9853 94.5849 63.8352 85.5671 56.7104C76.5492 49.5856 62.6225 52.1842 54.4607 62.5145C46.299 72.8448 46.993 86.9949 56.0109 94.1197C65.0287 101.244 78.9555 98.6459 87.1172 88.3156Z" fill="#0B0B00"/>
<path d="M87.0508 88.2631C95.1796 77.9745 94.4886 63.8816 85.5074 56.7858C76.5261 49.6899 62.6557 52.2781 54.527 62.5667C46.3982 72.8554 47.0892 86.9482 56.0704 94.0441C65.0516 101.14 78.922 98.5517 87.0508 88.2631Z" fill="#0A0A00"/>
<path d="M86.983 88.2087C95.0788 77.9617 94.3918 63.9269 85.4485 56.861C76.5052 49.7951 62.6922 52.3738 54.5963 62.6207C46.5005 72.8677 47.1875 86.9025 56.1308 93.9684C65.0741 101.034 78.8871 98.4556 86.983 88.2087Z" fill="#0A0A00"/>
<path d="M86.9169 88.157C94.9789 77.953 94.294 63.9764 85.3873 56.9395C76.4807 49.9025 62.7249 52.4699 54.663 62.6739C46.601 72.8778 47.2859 86.8544 56.1925 93.8913C65.0992 100.928 78.855 98.3609 86.9169 88.157Z" fill="#090900"/>
<path d="M86.8505 88.1044C94.8795 77.9421 94.1977 64.0228 85.3276 57.0148C76.4576 50.0067 62.7582 52.5638 54.7292 62.7261C46.7002 72.8884 47.382 86.8077 56.2521 93.8157C65.1221 100.824 78.8215 98.2667 86.8505 88.1044Z" fill="#090900"/>
<path d="M86.7842 88.0519C94.7802 77.9312 94.1014 64.0692 85.268 57.0901C76.4346 50.111 62.7916 52.6578 54.7955 62.7784C46.7995 72.899 47.4783 86.761 56.3117 93.7401C65.1451 100.719 78.7881 98.1725 86.7842 88.0519Z" fill="#090900"/>
<path d="M86.718 87.9994C94.6801 77.9217 94.0035 64.1179 85.2067 57.1678C76.4099 50.2177 62.8241 52.753 54.862 62.8307C46.8999 72.9083 47.5765 86.7121 56.3733 93.6622C65.1701 100.612 78.7559 98.077 86.718 87.9994Z" fill="#080800"/>
<path d="M86.6517 87.9468C94.5809 77.9109 93.9073 64.1644 85.1471 57.2432C76.3869 50.322 62.8575 52.847 54.9284 62.883C46.9992 72.9189 47.6728 86.6654 56.433 93.5866C65.1931 100.508 78.7225 97.9828 86.6517 87.9468Z" fill="#080800"/>
<path d="M86.585 87.8949C94.4813 77.9006 93.8106 64.2114 85.0871 57.3191C76.3636 50.4269 62.8906 52.9416 54.9943 62.9358C47.0981 72.9301 47.7687 86.6194 56.4922 93.5116C65.2158 100.404 78.6888 97.8892 86.585 87.8949Z" fill="#080800"/>
<path d="M86.5179 87.8418C94.3802 77.8905 93.7118 64.2595 85.0249 57.3962C76.338 50.5329 62.9222 53.0362 55.0598 62.9875C47.1975 72.9389 47.866 86.5699 56.5529 93.4332C65.2398 100.296 78.6556 97.7932 86.5179 87.8418Z" fill="#070700"/>
<path d="M86.4525 87.79C94.2819 77.8804 93.6165 64.3066 84.9662 57.4723C76.316 50.6379 62.9566 53.1309 55.1272 63.0406C47.2978 72.9502 47.9632 86.5239 56.6135 93.3583C65.2638 100.193 78.6231 97.6997 86.4525 87.79Z" fill="#070700"/>
<path d="M86.3861 87.7374C94.1826 77.8695 93.5201 64.353 84.9065 57.5476C76.2928 50.7421 62.9898 53.2248 55.1934 63.0928C47.3969 72.9608 48.0594 86.4772 56.673 93.2826C65.2866 100.088 78.5896 97.6054 86.3861 87.7374Z" fill="#070700"/>
<path d="M86.3201 87.685C94.0826 77.86 93.4223 64.4018 84.8453 57.6253C76.2683 50.8488 63.0225 53.3201 55.26 63.1452C47.4975 72.9702 48.1577 86.4284 56.7347 93.2049C65.3117 99.9813 78.5575 97.51 86.3201 87.685Z" fill="#070700"/>
<path d="M86.2511 87.6313C93.9807 77.848 93.3245 64.4478 84.7854 57.7013C76.2463 50.9548 63.0579 53.4166 55.3283 63.1999C47.5987 72.9832 48.255 86.3833 56.7941 93.1299C65.3332 99.8764 78.5215 97.4146 86.2511 87.6313Z" fill="#060600"/>
<path d="M86.1848 87.578C93.8815 77.8364 93.2282 64.4935 84.7257 57.7759C76.2233 51.0583 63.0913 53.5098 55.3946 63.2514C47.698 72.9931 48.3512 86.336 56.8537 93.0536C65.3562 99.7712 78.4882 97.3197 86.1848 87.578Z" fill="#060600"/>
<path d="M86.1186 87.5263C93.7814 77.8276 93.1303 64.543 84.6645 57.8543C76.1986 51.1657 63.1239 53.6058 55.4611 63.3045C47.7984 73.0032 48.4495 86.2878 56.9153 92.9764C65.3811 99.6651 78.4559 97.225 86.1186 87.5263Z" fill="#060600"/>
<path d="M86.0521 87.4736C93.6819 77.8166 93.0338 64.5893 84.6046 57.9296C76.1754 51.2698 63.157 53.6996 55.5272 63.3566C47.8974 73.0137 48.5455 86.241 56.9747 92.9007C65.4039 99.5604 78.4223 97.1306 86.0521 87.4736Z" fill="#060600"/>
<path d="M85.9856 87.4212C93.5825 77.8058 92.9374 64.6358 84.5449 58.005C76.1523 51.3742 63.1903 53.7937 55.5935 63.409C47.9966 73.0243 48.6417 86.1944 57.0342 92.8252C65.4268 99.456 78.3888 97.0365 85.9856 87.4212Z" fill="#050500"/>
<path d="M85.9196 87.3687C93.4825 77.7963 92.8397 64.6846 84.4837 58.0827C76.1278 51.4809 63.223 53.889 55.6601 63.4614C48.0971 73.0338 48.74 86.1455 57.096 92.7474C65.4519 99.3492 78.3567 96.9411 85.9196 87.3687Z" fill="#050500"/>
<path d="M85.8532 87.3161C93.3832 77.7854 92.7433 64.7308 84.424 58.1579C76.1047 51.5851 63.2563 53.9828 55.7263 63.5135C48.1963 73.0442 48.8362 86.0988 57.1555 92.6717C65.4748 99.2446 78.3232 96.8468 85.8532 87.3161Z" fill="#050500"/>
<path d="M85.7867 87.2635C93.2838 77.7745 92.6469 64.7772 84.3642 58.2332C76.0816 51.6893 63.2896 54.0767 55.7925 63.5658C48.2955 73.0548 48.9323 86.0521 57.215 92.596C65.4977 99.14 78.2897 96.7525 85.7867 87.2635Z" fill="#050500"/>
<path d="M85.7202 87.2111C93.1843 77.7638 92.5504 64.8237 84.3044 58.3087C76.0583 51.7937 63.3227 54.1708 55.8586 63.6182C48.3945 73.0655 49.0284 86.0055 57.2744 92.5205C65.5205 99.0355 78.2561 96.6584 85.7202 87.2111Z" fill="#050500"/>
<path d="M85.654 87.1593C93.0842 77.7549 92.4525 64.8732 84.2431 58.3871C76.0337 51.9011 63.3553 54.2668 55.9251 63.6712C48.4949 73.0756 49.1266 85.9573 57.336 92.4434C65.5454 98.9295 78.2238 96.5637 85.654 87.1593Z" fill="#040400"/>
<path d="M85.5877 87.1068C92.9849 77.7441 92.3563 64.9196 84.1835 58.4625C76.0107 52.0054 63.3887 54.3608 55.9914 63.7235C48.5942 73.0862 49.2229 85.9107 57.3957 92.3678C65.5684 98.8249 78.1904 96.4695 85.5877 87.1068Z" fill="#040400"/>
<path d="M85.5188 87.0524C92.8831 77.7314 92.2584 64.9649 84.1235 58.5377C75.9886 52.1106 63.4241 54.4565 56.0597 63.7775C48.6954 73.0985 49.3201 85.8649 57.455 92.2921C65.5899 98.7193 78.1544 96.3734 85.5188 87.0524Z" fill="#040400"/>
<path d="M85.4527 86.9998C92.7831 77.7218 92.1606 65.0136 84.0624 58.6154C75.9641 52.2171 63.4567 54.5517 56.1263 63.8297C48.796 73.1078 49.4184 85.816 57.5167 92.2142C65.615 98.6124 78.1223 96.2779 85.4527 86.9998Z" fill="#040400"/>
<path d="M85.3863 86.9474C92.6837 77.711 92.0642 65.0601 84.0026 58.6908C75.941 52.3215 63.49 54.6457 56.1926 63.8821C48.8951 73.1185 49.5146 85.7694 57.5762 92.1387C65.6378 98.508 78.0888 96.1837 85.3863 86.9474Z" fill="#040400"/>
<path d="M85.32 86.8956C92.5845 77.7009 91.968 65.1072 83.943 58.7669C75.918 52.4265 63.5234 54.7404 56.2589 63.9351C48.9944 73.1298 49.6109 85.7234 57.6359 92.0638C65.6609 98.4041 78.0554 96.0902 85.32 86.8956Z" fill="#030300"/>
<path d="M85.2538 86.8431C92.4844 77.6913 91.8701 65.1559 83.8817 58.8445C75.8934 52.5331 63.556 54.8357 56.3254 63.9874C49.0948 73.1392 49.7091 85.6745 57.6975 91.9859C65.6858 98.2973 78.0232 95.9948 85.2538 86.8431Z" fill="#030300"/>
<path d="M85.1874 86.7905C92.385 77.6805 91.7737 65.2024 83.822 58.9199C75.8703 52.6374 63.5893 54.9296 56.3916 64.0397C49.194 73.1498 49.8053 85.6279 57.757 91.9103C65.7087 98.1928 77.9897 95.9006 85.1874 86.7905Z" fill="#030300"/>
<path d="M85.1208 86.738C92.2855 77.6696 91.6772 65.2488 83.7621 58.9952C75.847 52.7417 63.6224 55.0236 56.4577 64.092C49.293 73.1603 49.9013 85.5812 57.8164 91.8347C65.7315 98.0883 77.9561 95.8064 85.1208 86.738Z" fill="#030300"/>
<path d="M85.0546 86.6862C92.1854 77.6608 91.5793 65.2982 83.7008 59.0737C75.8224 52.8491 63.655 55.1196 56.5242 64.145C49.3934 73.1704 49.9995 85.533 57.878 91.7576C65.7565 97.9822 77.9239 95.7117 85.0546 86.6862Z" fill="#030300"/>
<path d="M84.9883 86.6329C92.0862 77.6491 91.4831 65.3438 83.6412 59.1482C75.7994 52.9525 63.6884 55.2127 56.5906 64.1964C49.4927 73.1802 50.0958 85.4855 57.9377 91.6812C65.7795 97.8768 77.8905 95.6166 84.9883 86.6329Z" fill="#030300"/>
<path d="M84.9219 86.5811C91.9868 77.6391 91.3867 65.391 83.5815 59.2243C75.7763 53.0576 63.7217 55.3075 56.6568 64.2495C49.5919 73.1916 50.192 85.4397 57.9972 91.6064C65.8024 97.7731 77.857 95.5232 84.9219 86.5811Z" fill="#030300"/>
<path d="M84.8558 86.5278C91.8868 77.6287 91.2889 65.4389 83.5203 59.3012C75.7518 53.1634 63.7544 55.4019 56.7234 64.301C49.6924 73.2002 50.2903 85.3899 58.0589 91.5277C65.8275 97.6655 77.8249 95.427 84.8558 86.5278Z" fill="#020200"/>
<path d="M84.7869 86.4743C91.785 77.6168 91.191 65.4851 83.4604 59.3773C75.7297 53.2695 63.7897 55.4985 56.7917 64.3559C49.7936 73.2133 50.3876 85.345 58.1182 91.4529C65.8489 97.5607 77.7889 95.3317 84.7869 86.4743Z" fill="#020200"/>
<path d="M84.7206 86.4217C91.6857 77.606 91.0948 65.5315 83.4008 59.4526C75.7067 53.3738 63.8231 55.5924 56.858 64.4082C49.8929 73.2239 50.4838 85.2984 58.1779 91.3773C65.8719 97.4561 77.7555 95.2375 84.7206 86.4217Z" fill="#020200"/>
<path d="M84.6565 86.367C91.5877 77.5943 90.999 65.5781 83.3416 59.5281C75.6842 53.4782 63.8578 55.6855 56.9266 64.4583C49.9954 73.2311 50.5841 85.2473 58.2415 91.2972C65.8989 97.3472 77.7253 95.1398 84.6565 86.367Z" fill="#020200"/>
<path d="M84.5879 86.3173C91.4861 77.5862 90.9004 65.6273 83.2796 59.6063C75.6589 53.5853 63.8889 55.7823 56.9906 64.5134C50.0924 73.2445 50.6781 85.2034 58.2989 91.2244C65.9196 97.2454 77.6896 95.0484 84.5879 86.3173Z" fill="#020200"/>
<path d="M84.5214 86.2641C91.3867 77.5747 90.804 65.673 83.2199 59.681C75.6357 53.6889 63.9222 55.8756 57.0568 64.565C50.1915 73.2544 50.7743 85.1561 58.3584 91.1482C65.9425 97.1402 77.6561 94.9536 84.5214 86.2641Z" fill="#020200"/>
<path d="M84.4553 86.2123C91.2866 77.5658 90.7061 65.7224 83.1586 59.7593C75.6111 53.7962 63.9547 55.9715 57.1233 64.618C50.292 73.2645 50.8725 85.1079 58.42 91.071C65.9675 97.0341 77.6239 94.8588 84.4553 86.2123Z" fill="#020200"/>
<path d="M84.389 86.1598C91.1874 77.555 90.6099 65.7688 83.099 59.8347C75.5881 53.9005 63.9881 56.0655 57.1897 64.6703C50.3912 73.2751 50.9688 85.0612 58.4796 90.9954C65.9905 96.9295 77.5905 94.7646 84.389 86.1598Z" fill="#020200"/>
<path d="M84.3225 86.1073C91.088 77.5442 90.5135 65.8153 83.0392 59.9101C75.565 54.0049 64.0214 56.1595 57.2559 64.7226C50.4904 73.2857 51.0649 85.0146 58.5392 90.9198C66.0134 96.8251 77.557 94.6704 84.3225 86.1073Z" fill="#020200"/>
<path d="M84.2565 86.0548C90.9881 77.5346 90.4157 65.864 82.9781 59.9877C75.5405 54.1114 64.0541 56.2547 57.3225 64.7749C50.5909 73.295 51.1633 84.9656 58.6009 90.8419C66.0385 96.7182 77.5249 94.5749 84.2565 86.0548Z" fill="#020200"/>
<path d="M84.1898 86.0023C90.8884 77.5238 90.3191 65.9105 82.9181 60.0631C75.5171 54.2158 64.0871 56.3487 57.3885 64.8272C50.6898 73.3057 51.2592 84.919 58.6602 90.7664C66.0612 96.6137 77.4912 94.4808 84.1898 86.0023Z" fill="#010100"/>
<path d="M84.1256 85.9474C90.7913 77.5107 90.2249 65.9546 82.8606 60.1362C75.4962 54.3178 64.1226 56.4404 57.4569 64.8772C50.7912 73.314 51.3576 84.8701 58.7219 90.6885C66.0862 96.5069 77.4598 94.3842 84.1256 85.9474Z" fill="#010100"/>
<path d="M84.0548 85.896C90.6866 77.5022 90.1234 66.0052 82.797 60.2167C75.4705 54.4283 64.1552 56.5403 57.5234 64.9342C50.8916 73.328 51.4548 84.825 58.7812 90.6135C66.1077 96.402 77.423 94.2899 84.0548 85.896Z" fill="#010100"/>
<path d="M83.9885 85.8435C90.5873 77.4914 90.0272 66.0516 82.7374 60.2921C75.4476 54.5326 64.1886 56.6343 57.5897 64.9865C50.9909 73.3386 51.551 84.7784 58.8409 90.5379C66.1307 96.2974 77.3897 94.1957 83.9885 85.8435Z" fill="#010100"/>
<path d="M83.9241 85.7889C90.49 77.4784 89.9329 66.0959 82.6797 60.3653C75.4265 54.6347 64.2239 56.7261 57.658 65.0366C51.0921 73.3471 51.6493 84.7296 58.9025 90.4602C66.1556 96.1907 77.3582 94.0993 83.9241 85.7889Z" fill="#010100"/>
<path d="M83.8559 85.7386C90.3879 77.4711 89.8329 66.1469 82.6164 60.4452C75.3998 54.7436 64.2544 56.8237 57.7224 65.0912C51.1905 73.3587 51.7454 84.6829 58.962 90.3846C66.1785 96.0862 77.3239 94.0061 83.8559 85.7386Z" fill="#010100"/>
<path d="M83.7896 85.686C90.2886 77.4602 89.7367 66.1932 82.5567 60.5205C75.3768 54.8478 64.2878 56.9176 57.7888 65.1434C51.2898 73.3692 51.8417 84.6362 59.0216 90.3089C66.2016 95.9816 77.2905 93.9119 83.7896 85.686Z" fill="#010100"/>
<path d="M83.7242 85.6341C90.1904 77.45 89.6414 66.2402 82.4981 60.5965C75.3548 54.9527 64.3222 57.0122 57.8561 65.1963C51.39 73.3805 51.939 84.5902 59.0823 90.2339C66.2255 95.8777 77.2581 93.8183 83.7242 85.6341Z" fill="#010100"/>
<path d="M83.6569 85.5817C90.089 77.4405 89.5423 66.289 82.4356 60.6742C75.3289 55.0594 64.3536 57.1075 57.9214 65.2487C51.4892 73.3899 52.036 84.5413 59.1426 90.1561C66.2493 95.7709 77.2247 93.7229 83.6569 85.5817Z" fill="#010100"/>
<path d="M83.5904 85.5291C89.9897 77.4296 89.4459 66.3354 82.3759 60.7495C75.3058 55.1637 64.3868 57.2014 57.9876 65.3009C51.5884 73.4004 52.1321 84.4946 59.2022 90.0805C66.2722 95.6663 77.1912 93.6286 83.5904 85.5291Z" fill="#010100"/>
<path d="M83.5241 85.4767C89.8904 77.4189 89.3496 66.3819 82.3163 60.825C75.2829 55.2681 64.4203 57.2955 58.054 65.3533C51.6876 73.4111 52.2284 84.4481 59.2618 90.005C66.2952 95.5619 77.1578 93.5345 83.5241 85.4767Z" fill="#010100"/>
<path d="M83.4579 85.4241C89.7903 77.4092 89.2517 66.4305 82.255 60.9026C75.2582 55.3746 64.4528 57.3906 58.1204 65.4055C51.7881 73.4204 52.3267 84.399 59.3234 89.927C66.3202 95.455 77.1256 93.439 83.4579 85.4241Z" fill="#010100"/>
<path d="M83.3901 85.3704C89.6895 77.3972 89.155 66.4766 82.1961 60.9786C75.2373 55.4806 64.4893 57.4871 58.1898 65.4603C51.8904 73.4335 52.425 84.3541 59.3838 89.8521C66.3427 95.3501 77.0907 93.3436 83.3901 85.3704Z" fill="#010100"/>
<path d="M83.3238 85.3178C89.5903 77.3863 89.0587 66.523 82.1365 61.0539C75.2143 55.5848 64.5227 57.581 58.2562 65.5125C51.9897 73.444 52.5212 84.3074 59.4435 89.7765C66.3657 95.2455 77.0573 93.2494 83.3238 85.3178Z" fill="#010100"/>
<path d="M83.2576 85.2654C89.4902 77.3769 88.9608 66.5718 82.0752 61.1316C75.1896 55.6915 64.5552 57.6763 58.3227 65.5649C52.0901 73.4534 52.6195 84.2585 59.5051 89.6987C66.3907 95.1388 77.0251 93.154 83.2576 85.2654Z" fill="#010100"/>
<path d="M83.1912 85.213C89.3908 77.3661 88.8644 66.6183 82.0155 61.2071C75.1665 55.7958 64.5885 57.7703 58.3889 65.6172C52.1893 73.4641 52.7156 84.2119 59.5646 89.6231C66.4136 95.0343 76.9916 93.0598 83.1912 85.213Z" fill="#010100"/>
<path d="M83.1246 85.1603C89.2913 77.3551 88.768 66.6646 81.9556 61.2823C75.1433 55.9 64.6217 57.8642 58.455 65.6694C52.2883 73.4746 52.8117 84.1651 59.624 89.5474C66.4363 94.9297 76.9579 92.9655 83.1246 85.1603Z" fill="#010100"/>
<path d="M83.0586 85.1087C89.1914 77.3464 88.6702 66.7141 81.8945 61.3608C75.1188 56.0075 64.6544 57.9603 58.5216 65.7226C52.3888 73.4848 52.91 84.1171 59.6857 89.4704C66.4614 94.8237 76.9258 92.8709 83.0586 85.1087Z" fill="#010100"/>
<path d="M82.9911 85.0553C89.0909 77.3347 88.5727 66.7597 81.8336 61.4353C75.0945 56.1109 64.6866 58.0534 58.5867 65.774C52.4869 73.4945 53.0051 84.0696 59.7442 89.3939C66.4832 94.7183 76.8912 92.7758 82.9911 85.0553Z" fill="black"/>
<path d="M82.9257 85.0035C88.9926 77.3246 88.4774 66.8068 81.775 61.5114C75.0725 56.216 64.7209 58.1481 58.654 65.827C52.5871 73.5059 53.1023 84.0236 59.8048 89.3191C66.5072 94.6145 76.8588 92.6824 82.9257 85.0035Z" fill="black"/>
<path d="M82.8617 84.9528C88.8947 77.3168 88.3817 66.8574 81.7159 61.5909C75.0501 56.3244 64.7557 58.2452 58.7227 65.8811C52.6898 73.517 53.2028 83.9765 59.8686 89.243C66.5344 94.5095 76.8288 92.5887 82.8617 84.9528Z" fill="black"/>
<path d="M82.7932 84.8985C88.7933 77.3042 88.2833 66.902 81.6541 61.6644C75.0249 56.4269 64.7869 58.3374 58.7869 65.9316C52.7868 73.5258 53.2969 83.9281 59.926 89.1656C66.5552 94.4032 76.7932 92.4927 82.7932 84.8985Z" fill="black"/>
<path d="M82.7267 84.8459C88.6938 77.2933 88.1868 66.9483 81.5942 61.7397C75.0017 56.5311 64.8201 58.4313 58.853 65.9838C52.8859 73.5364 53.3929 83.8814 59.9854 89.09C66.578 94.2986 76.7596 92.3984 82.7267 84.8459Z" fill="black"/>
<path d="M82.6612 84.7784C88.5931 77.2677 88.0875 66.9819 81.5319 61.8044C74.9764 56.6269 64.8533 58.5182 58.9215 66.0289C52.9896 73.5395 53.4952 83.8253 60.0508 89.0029C66.6063 94.1804 76.7294 92.289 82.6612 84.7784Z" fill="black"/>
<path d="M82.5917 84.7399C88.4919 77.2719 87.9911 67.0433 81.4731 61.8936C74.9551 56.7439 64.8881 58.6231 58.9879 66.091C53.0877 73.559 53.5885 83.7876 60.1065 88.9373C66.6245 94.0871 76.6915 92.2078 82.5917 84.7399Z" fill="black"/>
<path d="M82.5253 84.6865C88.3926 77.2602 87.8948 67.0889 81.4134 61.9681C74.932 56.8473 64.9214 58.7162 59.0541 66.1425C53.1868 73.5687 53.6846 83.7401 60.166 88.8609C66.6474 93.9817 76.658 92.1127 82.5253 84.6865Z" fill="black"/>
<path d="M82.4591 84.6347C88.2925 77.2514 87.7968 67.1383 81.3521 62.0465C74.9073 56.9546 64.954 58.8122 59.1206 66.1955C53.2872 73.5788 53.7829 83.6919 60.2276 88.7838C66.6723 93.8756 76.6257 92.018 82.4591 84.6347Z" fill="black"/>
<path d="M82.3928 84.5822C88.1932 77.2406 87.7006 67.1848 81.2925 62.1218C74.8844 57.0589 64.9874 58.9062 59.1869 66.2478C53.3865 73.5894 53.8791 83.6453 60.2873 88.7082C66.6954 93.7711 76.5924 91.9238 82.3928 84.5822Z" fill="black"/>
<path d="M82.3263 84.5296C88.0938 77.2297 87.6042 67.2311 81.2327 62.1971C74.8613 57.1632 65.0207 59.0001 59.2532 66.3C53.4857 73.5999 53.9753 83.5985 60.3468 88.6325C66.7183 93.6665 76.5588 91.8295 82.3263 84.5296Z" fill="black"/>
<path d="M81.1719 62.2669C87.5061 67.272 87.9943 77.2124 82.2614 84.4694C76.5285 91.7264 66.7447 93.5543 60.4105 88.5492C54.0764 83.5441 53.5882 73.6037 59.3211 66.3467C65.0539 59.0897 74.8378 57.2618 81.1719 62.2669Z" fill="black"/>
<path d="M82.1926 84.4247C87.8933 77.2094 87.4088 67.3263 81.1106 62.3502C74.8124 57.3742 65.0854 59.1894 59.3848 66.4047C53.6841 73.62 54.1686 83.503 60.4668 88.4791C66.765 93.4552 76.492 91.6399 82.1926 84.4247Z" fill="black"/>
<path d="M82.1273 84.3729C87.795 77.1993 87.3136 67.3735 81.052 62.4264C74.7904 57.4792 65.1198 59.2842 59.4521 66.4578C53.7844 73.6314 54.2658 83.4572 60.5274 88.4043C66.789 93.3514 76.4596 91.5465 82.1273 84.3729Z" fill="black"/>
<path d="M82.0622 84.3182C87.696 77.1875 87.2168 67.42 80.9918 62.5018C74.7668 57.5836 65.1535 59.3772 59.5197 66.5078C53.8859 73.6385 54.3652 83.406 60.5901 88.3242C66.8151 93.2424 76.4285 91.4488 82.0622 84.3182Z" fill="black"/>
<path d="M81.9948 84.2679C87.5957 77.1789 87.1194 67.4687 80.9311 62.5794C74.7428 57.6902 65.1858 59.4734 59.5849 66.5624C53.9841 73.6513 54.4604 83.3616 60.6487 88.2508C66.837 93.1401 76.394 91.3569 81.9948 84.2679Z" fill="black"/>
<path d="M81.9259 84.2133C87.4938 77.1661 87.0216 67.5139 80.8711 62.6545C74.7207 57.7952 65.2211 59.5689 59.6532 66.6162C54.0853 73.6635 54.5576 83.3157 60.708 88.175C66.8584 93.0343 76.358 91.2606 81.9259 84.2133Z" fill="black"/>
<path d="M81.8608 84.1587C87.3948 77.1544 86.9247 67.5605 80.811 62.7301C74.6972 57.8997 65.2548 59.6621 59.7208 66.6664C54.1868 73.6707 54.6569 83.2647 60.7707 88.095C66.8845 92.9254 76.3269 91.1631 81.8608 84.1587Z" fill="black"/>
<path d="M81.7934 84.1084C87.2944 77.1457 86.8274 67.6091 80.7502 62.8076C74.6731 58.0062 65.2871 59.7582 59.7861 66.7209C54.285 73.6835 54.7521 83.2202 60.8292 88.0216C66.9064 92.8231 76.2924 91.071 81.7934 84.1084Z" fill="black"/>
<path d="M81.727 84.0566C87.1951 77.1357 86.731 67.6563 80.6905 62.8838C74.65 58.1113 65.3204 59.853 59.8523 66.774C54.3842 73.6949 54.8482 83.1743 60.8888 87.9468C66.9293 92.7193 76.2589 90.9776 81.727 84.0566Z" fill="black"/>
<path d="M81.6619 84.0012C87.0961 77.1231 86.6342 67.702 80.6303 62.9585C74.6264 58.2149 65.354 59.9453 59.9199 66.8233C54.4857 73.7013 54.9476 83.1224 60.9515 87.866C66.9554 92.6095 76.2277 90.8792 81.6619 84.0012Z" fill="black"/>
<path d="M81.5943 83.9516C86.9955 77.1153 86.5366 67.7514 80.5694 63.0368C74.6021 58.3222 65.3861 60.0422 59.9849 66.8786C54.5836 73.7149 55.0425 83.0788 61.0098 87.7934C66.977 92.508 76.193 90.788 81.5943 83.9516Z" fill="black"/>
<path d="M81.5279 83.8997C86.8962 77.1051 86.4404 67.7984 80.5097 63.1128C74.5791 58.4271 65.4195 60.1368 60.0512 66.9315C54.6829 73.7261 55.1388 83.0327 61.0694 87.7184C67.0001 92.404 76.1596 90.6944 81.5279 83.8997Z" fill="black"/>
<path d="M81.4618 83.8465C86.7961 77.0948 86.3425 67.8464 80.4485 63.1897C74.5545 58.533 65.4521 60.2313 60.1177 66.983C54.7833 73.7347 55.237 82.9831 61.131 87.6398C67.025 92.2965 76.1274 90.5982 81.4618 83.8465Z" fill="black"/>
<path d="M81.3955 83.7947C86.6969 77.0847 86.2462 67.8936 80.3888 63.2658C74.5315 58.638 65.4855 60.326 60.184 67.036C54.8826 73.7461 55.3333 82.9372 61.1907 87.5649C67.048 92.1927 76.094 90.5047 81.3955 83.7947Z" fill="black"/>
<path d="M81.329 83.7414C86.5975 77.0731 86.1498 67.9393 80.3291 63.3404C74.5084 58.7416 65.5188 60.4193 60.2503 67.0876C54.9818 73.7559 55.4295 82.8898 61.2502 87.4886C67.0709 92.0874 76.0605 90.4098 81.329 83.7414Z" fill="black"/>
<path d="M81.2629 83.6898C86.4974 77.0644 86.0519 67.9889 80.2678 63.419C74.4837 58.8491 65.5513 60.5154 60.3168 67.1408C55.0822 73.7662 55.5277 82.8417 61.3118 87.4116C67.0959 91.9815 76.0283 90.3152 81.2629 83.6898Z" fill="black"/>
<path d="M80.2094 63.4873C85.9562 68.0267 86.3992 77.0462 81.1961 83.6291C75.9954 90.2137 67.1196 91.8711 61.3728 87.3318C55.626 82.7925 55.183 73.7729 60.3861 67.19C65.5869 60.6054 74.4626 58.948 80.2094 63.4873Z" fill="black"/>
<path d="M80.1506 63.5636C85.8599 68.0752 86.3001 77.0347 81.1322 83.5748C75.9626 90.1172 67.1457 91.7636 61.4364 87.252C55.7271 82.7403 55.2869 73.7808 60.4548 67.2407C65.6244 60.6983 74.4413 59.0519 80.1506 63.5636Z" fill="black"/>
<path d="M81.0613 83.531C86.1961 77.0319 85.7598 68.1299 80.0868 63.6479C74.4139 59.1658 65.6525 60.8009 60.5178 67.3C55.383 73.799 55.8193 82.701 61.4922 87.1831C67.1652 91.6651 75.9266 90.03 81.0613 83.531Z" fill="black"/>
<path d="M80.9949 83.4777C86.0967 77.0203 85.6634 68.1756 80.0271 63.7225C74.3908 59.2694 65.6858 60.8941 60.584 67.3515C55.4822 73.8089 55.9154 82.6536 61.5518 87.1067C67.1881 91.5598 75.8931 89.9351 80.9949 83.4777Z" fill="black"/>
<path d="M80.9286 83.4259C85.9975 77.0102 85.5672 68.2228 79.9675 63.7986C74.3678 59.3744 65.7192 60.9888 60.6503 67.4045C55.5814 73.8202 56.0117 82.6077 61.6114 87.0319C67.2111 91.456 75.8597 89.8416 80.9286 83.4259Z" fill="black"/>
<path d="M80.8624 83.3734C85.8974 77.0007 85.4693 68.2715 79.9062 63.8762C74.3432 59.481 65.7518 61.0841 60.7168 67.4568C55.6819 73.8296 56.11 82.5588 61.673 86.954C67.2361 91.3492 75.8274 89.7462 80.8624 83.3734Z" fill="black"/>
<path d="M80.7961 83.3209C85.7981 76.9898 85.373 68.3179 79.8466 63.9516C74.3202 59.5853 65.7852 61.1781 60.7832 67.5091C55.7811 73.8402 56.2062 82.5121 61.7327 86.8784C67.2591 91.2447 75.7941 89.6519 80.7961 83.3209Z" fill="black"/>
<path d="M80.7297 83.2684C85.6987 76.979 85.2766 68.3643 79.7869 64.027C74.2971 59.6896 65.8185 61.272 60.8494 67.5614C55.8803 73.8508 56.3024 82.4655 61.7922 86.8028C67.282 91.1402 75.7606 89.5577 80.7297 83.2684Z" fill="black"/>
<path d="M80.6635 83.2159C85.5986 76.9694 85.1787 68.413 79.7256 64.1046C74.2724 59.7962 65.851 61.3673 60.9159 67.6137C55.9807 73.8602 56.4006 82.4165 61.8538 86.725C67.3069 91.0334 75.7283 89.4623 80.6635 83.2159Z" fill="black"/>
<path d="M80.5969 83.1633C85.4992 76.9586 85.0822 68.4595 79.6657 64.18C74.2492 59.9005 65.8842 61.4613 60.982 67.666C56.0798 73.8708 56.4967 82.3699 61.9132 86.6494C67.3297 90.9288 75.6947 89.3681 80.5969 83.1633Z" fill="black"/>
<path d="M80.528 83.1096C85.3973 76.9466 84.9844 68.5055 79.6058 64.256C74.2271 60.0065 65.9196 61.5577 61.0503 67.7207C56.181 73.8838 56.5939 82.3249 61.9725 86.5744C67.3511 90.8239 75.6587 89.2727 80.528 83.1096Z" fill="black"/>
<path d="M79.5476 64.3252C84.8919 68.546 85.3012 76.9286 80.4664 83.0514C75.6292 89.1726 67.3798 90.7124 62.0379 86.4934C56.6935 82.2727 56.2842 73.8901 61.119 67.7672C65.9562 61.6461 74.2056 60.1062 79.5476 64.3252Z" fill="black"/>
<path d="M80.3955 83.0046C85.1979 76.9262 84.7902 68.6007 79.4849 64.409C74.1795 60.2174 65.9855 61.7469 61.1831 67.8253C56.3807 73.9038 56.7884 82.2293 62.0938 86.4209C67.3991 90.6126 75.5931 89.083 80.3955 83.0046Z" fill="black"/>
<path d="M80.3292 82.9521C85.0987 76.9153 84.694 68.6471 79.4253 64.4844C74.1565 60.3217 66.0189 61.8409 61.2495 67.8776C56.48 73.9144 56.8847 82.1826 62.1534 86.3453C67.4221 90.508 75.5597 88.9888 80.3292 82.9521Z" fill="black"/>
<path d="M80.263 82.8996C84.9986 76.9058 84.5961 68.6958 79.364 64.562C74.1319 60.4283 66.0515 61.9361 61.3159 67.9299C56.5804 73.9237 56.9829 82.1337 62.215 86.2675C67.4471 90.4012 75.5275 88.8934 80.263 82.8996Z" fill="black"/>
<path d="M80.1967 82.8471C84.8993 76.895 84.4998 68.7422 79.3044 64.6374C74.1089 60.5326 66.0849 62.0301 61.3823 67.9822C56.6797 73.9343 57.0792 82.0871 62.2747 86.1919C67.4701 90.2967 75.4941 88.7992 80.1967 82.8471Z" fill="black"/>
<path d="M80.13 82.7952C84.7997 76.8848 84.4032 68.7893 79.2444 64.7134C74.0855 60.6375 66.1179 62.1247 61.4483 68.0352C56.7786 73.9456 57.1751 82.0411 62.3339 86.117C67.4928 90.1928 75.4603 88.7056 80.13 82.7952Z" fill="black"/>
<path d="M79.1856 64.7828C84.3076 68.8286 84.7025 76.8674 80.0668 82.7351C75.4311 88.6028 67.5205 90.081 62.3985 86.0351C57.2766 81.9893 56.8817 73.9505 61.5174 68.0829C66.1531 62.2152 74.0637 60.7369 79.1856 64.7828Z" fill="black"/>
<path d="M79.9976 82.6903C84.6004 76.8645 84.209 68.8845 79.1235 64.8665C74.0379 60.8485 66.1839 62.314 61.5811 68.1398C56.9783 73.9656 57.3696 81.9456 62.4552 85.9636C67.5408 89.9816 75.3947 88.516 79.9976 82.6903Z" fill="black"/>
<path d="M79.9311 82.6377C84.501 76.8536 84.1127 68.9309 79.0637 64.9418C74.0148 60.9528 66.2172 62.4079 61.6473 68.1921C57.0774 73.9762 57.4658 81.8989 62.5147 85.8879C67.5636 89.877 75.3612 88.4218 79.9311 82.6377Z" fill="black"/>
<path d="M79.8672 82.5831C84.4031 76.8419 84.017 68.9775 79.0047 65.0174C73.9924 61.0573 66.252 62.5011 61.716 68.2423C57.18 73.9834 57.5662 81.8479 62.5785 85.808C67.5908 89.7681 75.3312 88.3242 79.8672 82.5831Z" fill="black"/>
<path d="M78.9456 65.0878C83.9209 69.0183 84.3034 76.8233 79.801 82.525C75.2986 88.2266 67.6145 89.6581 62.6392 85.7277C57.6639 81.7973 57.2814 73.9922 61.7837 68.2906C66.2861 62.589 73.9703 61.1574 78.9456 65.0878Z" fill="black"/>
<path d="M79.7308 82.4789C84.2009 76.8212 83.8218 69.072 78.884 65.1708C73.9462 61.2696 66.3196 62.6936 61.8495 68.3514C57.3795 74.0092 57.7586 81.7583 62.6964 85.6595C67.6341 89.5607 75.2607 88.1367 79.7308 82.4789Z" fill="black"/>
<path d="M79.6637 82.4265C84.0998 76.8117 83.7229 69.1208 78.8217 65.2486C73.9206 61.3763 66.3512 62.7889 61.9151 68.4037C57.4789 74.0186 57.8559 81.7094 62.757 85.5817C67.6581 89.454 75.2275 88.0413 79.6637 82.4265Z" fill="black"/>
<path d="M79.5971 82.3739C84.0003 76.8008 83.6264 69.1672 78.7619 65.3239C73.8974 61.4805 66.3844 62.8828 61.9812 68.456C57.5779 74.0291 57.9519 81.6627 62.8164 85.506C67.6809 89.3494 75.1939 87.9471 79.5971 82.3739Z" fill="black"/>
<path d="M78.7022 65.3932C83.5308 69.2082 83.9016 76.7836 79.532 82.3151C75.1623 87.8466 67.7058 89.2396 62.8772 85.4246C58.0486 81.6096 57.6778 74.0341 62.0474 68.5026C66.4171 62.9711 73.8736 61.5782 78.7022 65.3932Z" fill="black"/>
<path d="M78.6426 65.4689C83.4354 69.2539 83.8039 76.7734 79.4655 82.2627C75.1293 87.7537 67.7292 89.134 62.9364 85.349C58.1436 81.564 57.775 74.0445 62.1135 68.5553C66.4497 63.0643 73.8497 61.684 78.6426 65.4689Z" fill="black"/>
<path d="M79.3993 82.2171C83.7027 76.7703 83.3369 69.3095 78.5823 65.553C73.8277 61.7965 66.4847 63.1667 62.1813 68.6136C57.8779 74.0604 58.2437 81.5212 62.9983 85.2777C67.7529 89.0342 75.0959 87.6639 79.3993 82.2171Z" fill="black"/>
<path d="M79.3318 82.1638C83.6022 76.7587 83.2395 69.3552 78.5215 65.6276C73.8035 61.9 66.5169 63.26 62.2464 68.6651C57.976 74.0703 58.3387 81.4738 63.0567 85.2014C67.7747 88.929 75.0613 87.569 79.3318 82.1638Z" fill="black"/>
<path d="M79.2657 82.1121C83.5023 76.7499 83.1417 69.4046 78.4603 65.706C73.779 62.0074 66.5496 63.356 62.313 68.7182C58.0765 74.0804 58.4371 81.4256 63.1184 85.1243C67.7998 88.8229 75.0292 87.4743 79.2657 82.1121Z" fill="black"/>
<path d="M79.199 82.0596C83.4026 76.739 83.0451 69.451 78.4003 65.7814C73.7556 62.1117 66.5826 63.4499 62.379 68.7705C58.1754 74.091 58.533 81.379 63.1777 85.0487C67.8224 88.7183 74.9954 87.3801 79.199 82.0596Z" fill="black"/>
<path d="M78.3417 65.8518C82.948 69.4919 83.3043 76.7236 79.1338 81.9998C74.9639 87.2802 67.8496 88.6069 63.2393 84.9674C58.633 81.3273 58.2767 74.0957 62.4472 68.8194C66.6171 63.539 73.7314 62.2123 78.3417 65.8518Z" fill="black"/>
<path d="M79.0654 81.9534C83.2021 76.7175 82.8508 69.5459 78.2806 65.9351C73.7104 62.3243 66.652 63.6417 62.5153 68.8776C58.3785 74.1134 58.7299 81.2851 63.3001 84.8959C67.8703 88.5067 74.9286 87.1893 79.0654 81.9534Z" fill="black"/>
<path d="M78.9977 81.9001C83.1015 76.7059 82.7532 69.5915 78.2196 66.0097C73.6861 62.4278 66.6841 63.7349 62.5803 68.9291C58.4765 74.1233 58.8248 81.2377 63.3584 84.8195C67.8919 88.4014 74.8939 87.0943 78.9977 81.9001Z" fill="black"/>
<path d="M78.9334 81.8461C83.0043 76.6936 82.6589 69.6365 78.162 66.0835C73.665 62.5306 66.7195 63.8274 62.6486 68.9799C58.5777 74.1324 58.9231 81.1895 63.42 84.7424C67.9169 88.2954 74.8625 86.9986 78.9334 81.8461Z" fill="black"/>
<path d="M78.1002 66.1557C82.5598 69.6804 82.9038 76.6783 78.8666 81.7885C74.8294 86.8988 67.9404 88.1852 63.4808 84.6605C59.0212 81.1358 58.6772 74.1379 62.7144 69.0276C66.7516 63.9174 73.6406 62.631 78.1002 66.1557Z" fill="black"/>
<path d="M78.0415 66.2315C82.4653 69.7261 82.8071 76.6681 78.801 81.7361C74.7973 86.8059 67.9648 88.0796 63.5411 84.5849C59.1173 81.0902 58.7755 74.1483 62.7815 69.0803C66.7852 64.0105 73.6177 62.7368 78.0415 66.2315Z" fill="black"/>
<path d="M78.7345 81.6885C82.7055 76.6623 82.3684 69.778 77.9813 66.3119C73.5943 62.8458 66.8187 64.1105 62.8476 69.1367C58.8765 74.1629 59.2137 81.0472 63.6008 84.5133C67.9878 87.9794 74.7634 86.7147 78.7345 81.6885Z" fill="black"/>
<path d="M78.6697 81.6252C82.607 76.64 82.2716 69.813 77.9206 66.3766C73.5696 62.9402 66.8507 64.1958 62.9134 69.181C58.9761 74.1662 59.3115 80.9932 63.6625 84.4296C68.0135 87.866 74.7324 86.6104 78.6697 81.6252Z" fill="black"/>
<path d="M78.5997 81.5856C82.5039 76.6441 82.1719 69.8752 77.8581 66.467C73.5443 63.0588 66.8824 64.3019 62.9781 69.2434C59.0739 74.185 59.4059 80.9538 63.7197 84.362C68.0335 87.7702 74.6954 86.5272 78.5997 81.5856Z" fill="black"/>
<path d="M77.8014 66.5362C82.0785 69.9155 82.4062 76.6261 78.5352 81.5257C74.6642 86.4253 68.0594 87.6605 63.7823 84.2812C59.5052 80.902 59.1775 74.1914 63.0461 69.29C66.9171 64.3904 73.5219 63.1552 77.799 66.5345L77.8014 66.5362Z" fill="black"/>
<path d="M77.7404 66.6142C81.9817 69.9634 82.3072 76.6181 78.4715 81.4748C74.634 86.334 68.0856 87.5564 63.846 84.2049C59.6047 80.8557 59.2792 74.201 63.1149 69.3442C66.9524 64.4851 73.5008 63.2626 77.7404 66.6142Z" fill="black"/>
<path d="M78.4009 81.4289C82.2053 76.6136 81.8815 70.0176 77.6776 66.6962C73.4737 63.3748 66.9817 64.5859 63.1773 69.4011C59.3729 74.2163 59.6967 80.8124 63.9006 84.1338C68.1045 87.4551 74.5965 86.2441 78.4009 81.4289Z" fill="black"/>
<path d="M77.619 66.7638C81.787 70.0553 82.1075 76.594 78.3364 81.368C74.5652 86.1421 68.1304 87.3433 63.9624 84.0518C59.7944 80.7603 59.4739 74.2215 63.245 69.4475C67.0162 64.6734 73.451 63.4723 77.619 66.7638Z" fill="black"/>
<path d="M78.2666 81.3227C82.0051 76.5908 81.6883 70.1101 77.559 66.8476C73.4297 63.5851 67.0515 64.7763 63.3129 69.5082C59.5744 74.24 59.8912 80.7208 64.0205 83.9833C68.1499 87.2458 74.528 86.0546 78.2666 81.3227Z" fill="black"/>
<path d="M77.4991 66.918C81.5937 70.1518 81.9068 76.5728 78.2044 81.2635C74.4997 85.9525 68.1783 87.1323 64.086 83.9002C59.9914 80.6665 59.6782 74.2455 63.3806 69.5547C67.0854 64.8658 73.4068 63.6859 77.4991 66.918Z" fill="black"/>
</g>
</g>
<g style="mix-blend-mode:screen">
<path d="M91.7094 47.206C98.5335 52.2392 103.189 59.1863 104.813 66.7663C106.491 74.5884 104.933 82.4113 100.313 89.3919C91.8323 102.206 74.9496 105.532 68.595 106.781C67.6374 106.97 66.8825 107.119 66.3589 107.254C62.9595 108.141 60.156 110.93 59.0234 112.196L45.9651 108.656L38.7272 97.2258C39.6017 95.77 41.4387 92.2678 41.2818 88.7582C41.2582 88.2157 41.1763 87.4526 41.0735 86.4821C40.3923 80.0396 38.5839 62.9319 48.32 51.043C53.6248 44.5677 60.6388 40.7693 68.6091 40.0596C76.3307 39.3728 84.3405 41.7673 91.1669 46.8022L91.4484 47.0099L91.7135 47.2054L91.7094 47.206ZM92.4378 46.2184C92.3463 46.1509 92.2572 46.0852 92.1657 46.0177C92.0742 45.9502 91.9827 45.8827 91.8936 45.817C77.4807 35.1864 58.7618 36.3605 47.3728 50.2647C35.9116 64.2569 39.8715 84.6792 40.0579 88.8118C40.2443 92.9443 37.2761 97.224 37.2761 97.224L45.1847 109.714L59.4537 113.582C59.4537 113.582 62.6682 109.484 66.6692 108.44C70.6725 107.397 91.3533 105.149 101.337 90.0669C111.257 75.0797 106.851 56.8489 92.4378 46.2184Z" fill="#FFFF9A"/>
</g>
<path fill-rule="evenodd" clip-rule="evenodd" d="M38.89 94.217L30.3371 108.529C30.3371 108.529 35.0585 117.086 49.5956 122.48L62.4009 110.707C62.4009 110.707 50.7501 106.688 38.89 94.217Z" fill="url(#paint3_linear_14_1793)"/>
<path fill-rule="evenodd" clip-rule="evenodd" d="M36.6312 98.0353C36.6312 98.0353 34.4443 98.3238 33.1208 99.2492L34.3867 101.751C34.3867 101.751 47.7626 112.997 59.4536 113.583C59.4536 113.583 61.6314 113.331 64.1457 111.994L63.2384 110.086L61.835 110.869C61.835 110.869 45.6766 108.985 36.6312 98.0353Z" fill="url(#paint4_linear_14_1793)"/>
<path style="mix-blend-mode:multiply" opacity="0.5" fill-rule="evenodd" clip-rule="evenodd" d="M33.1195 99.2512C33.1195 99.2512 48.4056 113.731 64.1444 111.996C64.1444 111.996 61.6445 113.814 59.4523 113.585C59.4523 113.585 49.7887 113.973 34.3854 101.753L33.1195 99.2512Z" fill="url(#paint5_linear_14_1793)"/>
<path fill-rule="evenodd" clip-rule="evenodd" d="M32.2465 105.33L30.3646 105.775L30.7542 107.83C30.7542 107.83 41.5021 117.92 52.8737 119.469L56.4005 118.846L55.2645 117.273C55.2645 117.273 44.0057 115.836 32.2512 105.334L32.2465 105.33Z" fill="url(#paint6_linear_14_1793)"/>
<path style="mix-blend-mode:multiply" opacity="0.5" fill-rule="evenodd" clip-rule="evenodd" d="M30.3651 105.775C30.3651 105.775 41.5277 116.913 56.3986 118.845L52.8717 119.467C52.8717 119.467 42.8354 118.74 30.7523 107.829L30.3627 105.774L30.3651 105.775Z" fill="url(#paint7_linear_14_1793)"/>
<path fill-rule="evenodd" clip-rule="evenodd" d="M36.6002 110.78C36.6002 110.78 40.6968 112.508 42.2927 114.214C42.2927 114.214 39.2869 113.359 36.6002 110.78Z" fill="#E2E0FF"/>
<path fill-rule="evenodd" clip-rule="evenodd" d="M40.8007 105.087C40.8007 105.087 43.9205 106.048 45.3775 107.731C45.3775 107.731 42.6734 107.066 40.8007 105.087Z" fill="#E2E0FF"/>
<path style="mix-blend-mode:screen" fill-rule="evenodd" clip-rule="evenodd" d="M58.7977 74.227C57.4083 76.1108 54.7548 76.5115 52.871 75.1221C50.9873 73.7328 50.5866 71.0792 51.9759 69.1955C53.3653 67.3118 56.0188 66.911 57.9026 68.3004C59.7863 69.6898 60.187 72.3433 58.7977 74.227Z" fill="url(#paint8_radial_14_1793)"/>
<defs>
<radialGradient id="paint0_radial_14_1793" cx="0" cy="0" r="1" gradientUnits="userSpaceOnUse" gradientTransform="translate(77.1822 66.9129) rotate(36.4114) scale(47.8512)">
<stop offset="0.03" stop-color="#FF9200"/>
<stop offset="0.04" stop-color="#FA8F00"/>
<stop offset="0.32" stop-color="#A35D00"/>
<stop offset="0.56" stop-color="#5D3500"/>
<stop offset="0.76" stop-color="#2A1800"/>
<stop offset="0.92" stop-color="#0B0600"/>
<stop offset="1"/>
</radialGradient>
<linearGradient id="paint1_linear_14_1793" x1="33.3745" y1="113.899" x2="43.03" y2="121.02" gradientUnits="userSpaceOnUse">
<stop stop-color="#281742"/>
<stop offset="1" stop-color="#322D45"/>
</linearGradient>
<radialGradient id="paint2_radial_14_1793" cx="0" cy="0" r="1" gradientUnits="userSpaceOnUse" gradientTransform="translate(79.8643 61.5574) rotate(36.4114) scale(50.4862 50.4862)">
<stop stop-color="#FFD700"/>
<stop offset="0.2" stop-color="#FED300"/>
<stop offset="0.37" stop-color="#FBC900"/>
<stop offset="0.52" stop-color="#F6B700"/>
<stop offset="0.67" stop-color="#EE9E00"/>
<stop offset="0.81" stop-color="#E57F00"/>
<stop offset="0.82" stop-color="#E57C00"/>
<stop offset="0.85" stop-color="#E27503"/>
<stop offset="0.9" stop-color="#DA610E"/>
<stop offset="0.95" stop-color="#CD421E"/>
<stop offset="0.96" stop-color="#CA3924"/>
</radialGradient>
<linearGradient id="paint3_linear_14_1793" x1="33.6434" y1="101.326" x2="56.7499" y2="118.368" gradientUnits="userSpaceOnUse">
<stop offset="0.03" stop-color="#A5A4C1"/>
<stop offset="0.27" stop-color="#8268A9"/>
<stop offset="1" stop-color="#B8B8B8"/>
</linearGradient>
<linearGradient id="paint4_linear_14_1793" x1="35.441" y1="96.1034" x2="61.6207" y2="115.413" gradientUnits="userSpaceOnUse">
<stop offset="0.03" stop-color="#DFCCDC"/>
<stop offset="0.27" stop-color="#9680B7"/>
<stop offset="1" stop-color="#CFCFCF"/>
</linearGradient>
<linearGradient id="paint5_linear_14_1793" x1="35.1508" y1="96.4972" x2="61.3304" y2="115.807" gradientUnits="userSpaceOnUse">
<stop stop-color="#540068"/>
<stop offset="1" stop-color="#90939A"/>
</linearGradient>
<linearGradient id="paint6_linear_14_1793" x1="31.5025" y1="104.227" x2="54.6091" y2="121.27" gradientUnits="userSpaceOnUse">
<stop offset="0.03" stop-color="#DFCCDC"/>
<stop offset="0.27" stop-color="#9680B7"/>
<stop offset="1" stop-color="#CFCFCF"/>
</linearGradient>
<linearGradient id="paint7_linear_14_1793" x1="31.3161" y1="104.481" x2="54.4227" y2="121.524" gradientUnits="userSpaceOnUse">
<stop stop-color="#540068"/>
<stop offset="1" stop-color="#90939A"/>
</linearGradient>
<radialGradient id="paint8_radial_14_1793" cx="0" cy="0" r="1" gradientUnits="userSpaceOnUse" gradientTransform="translate(55.0466 72.3297) rotate(36.4114) scale(4.45981)">
<stop stop-color="#FF4000"/>
<stop offset="0.25" stop-color="#FC3F00"/>
<stop offset="0.38" stop-color="#F43D00"/>
<stop offset="0.49" stop-color="#E63900"/>
<stop offset="0.59" stop-color="#D33500"/>
<stop offset="0.68" stop-color="#B92E00"/>
<stop offset="0.76" stop-color="#9A2600"/>
<stop offset="0.83" stop-color="#751D00"/>
<stop offset="0.9" stop-color="#4A1200"/>
<stop offset="0.97" stop-color="#1A0600"/>
<stop offset="1"/>
</radialGradient>
</defs>
</svg>
