<svg width="112" height="109" viewBox="0 0 112 109" fill="none" xmlns="http://www.w3.org/2000/svg">
<g clip-path="url(#clip0_14_2140)">
<path d="M107.3 55.53C107.3 83.09 81.47 104.67 53.91 104.67C26.35 104.67 4.15997 81.97 4.15997 54.41C4.15997 26.85 30.39 4.16003 57.95 4.16003C85.51 4.16003 107.3 27.97 107.3 55.53Z" fill="url(#paint0_linear_14_2140)"/>
<g style="mix-blend-mode:multiply" opacity="0.3">
<path d="M92.26 18.8C94.39 24.52 95.57 30.6901 95.57 37.0601C95.57 64.62 69.74 86.2 42.18 86.2C28.5 86.2 16.14 80.6 7.15997 71.59C14.11 90.8 32.37 104.66 53.91 104.66C81.47 104.66 107.3 83.08 107.3 55.5201C107.3 41.39 101.56 28.25 92.26 18.8Z" fill="#E58E0E"/>
</g>
<path d="M53.91 108.83C24.18 108.83 0 84.42 0 54.41C0 24.4 27.08 0 57.95 0C88.82 0 111.45 24.91 111.45 55.53C111.45 84.42 85.1 108.83 53.9 108.83H53.91ZM57.95 8.32C31.51 8.32 8.31 29.86 8.31 54.42C8.31 78.98 28.76 100.52 53.9 100.52C79.04 100.52 103.13 79.5 103.13 55.54C103.13 29.51 82.86 8.33 57.94 8.33L57.95 8.32Z" fill="url(#paint1_linear_14_2140)"/>
<path d="M66.54 23.47C69.68 29.28 72.35 34.69 73.7 38.99C73.95 39.8 74.53 40.47 75.28 40.86C80.89 43.83 86.02 46.85 89.75 50.02C91.15 51.21 91.24 53.34 89.99 54.68C85.52 59.51 81.22 63.7 77.29 66.4C76.58 66.89 76.12 67.64 75.97 68.49C74.97 74.09 73.46 79.55 71.51 84.89C70.87 86.66 68.86 87.53 67.14 86.77C62.1 84.55 57.19 81.69 52.41 78.29C51.69 77.78 50.79 77.58 49.92 77.74C44.46 78.72 38.8 78.97 32.96 78.61C31.08 78.5 29.68 76.8 29.93 74.93C30.64 69.57 31.81 64.07 33.33 58.44C33.56 57.59 33.45 56.67 32.99 55.92C30.98 52.65 29.08 46.29 27.19 39.9C26.65 38.07 27.79 36.17 29.65 35.78C35.22 34.63 40.83 34.01 46.5 33.96C47.34 33.96 48.14 33.62 48.74 33.04C53.11 28.8 57.49 25.16 61.87 22.31C63.47 21.27 65.62 21.79 66.53 23.47H66.54Z" fill="url(#paint2_linear_14_2140)"/>
<g style="mix-blend-mode:soft-light">
<path d="M17.48 36.14C16.45 38.09 15.57 40.2 15.6 42.41C15.63 44.62 16.76 46.92 18.78 47.8C20.89 48.71 23.33 47.9 25.42 46.92C30.02 44.76 34.24 41.79 37.85 38.21C41.22 34.87 45.3 30.28 46.62 25.61C47.72 21.69 44.55 19.03 40.89 18.64C36.35 18.16 31.81 21.13 28.31 23.7C23.85 26.98 20.09 31.24 17.49 36.14H17.48Z" fill="white"/>
</g>
<g style="mix-blend-mode:soft-light">
<path d="M51.62 13.32C50.71 13.49 49.77 13.74 49.06 14.33C48.35 14.92 47.93 15.96 48.3 16.81C48.59 17.48 49.3 17.89 50.02 18.02C50.74 18.15 51.48 18.04 52.2 17.93C54.41 17.6 56.61 17.26 58.82 16.93C59.96 16.76 61.33 16.44 61.57 15.11C61.76 14.07 61.15 13.6 60.25 13.34C57.63 12.57 54.26 12.83 51.62 13.32Z" fill="white"/>
</g>
</g>
<defs>
<linearGradient id="paint0_linear_14_2140" x1="50.67" y1="-31" x2="65.23" y2="216.53" gradientUnits="userSpaceOnUse">
<stop stop-color="#FFD188"/>
<stop offset="0.5" stop-color="#E58E0E"/>
<stop offset="1" stop-color="#5C3600"/>
</linearGradient>
<linearGradient id="paint1_linear_14_2140" x1="54.94" y1="48.05" x2="92.15" y2="371.63" gradientUnits="userSpaceOnUse">
<stop stop-color="#FFD188"/>
<stop offset="0.5" stop-color="#E58E0E"/>
<stop offset="1" stop-color="#5C3600"/>
</linearGradient>
<linearGradient id="paint2_linear_14_2140" x1="58.9485" y1="46.663" x2="55.3716" y2="210.219" gradientUnits="userSpaceOnUse">
<stop stop-color="#FFD188"/>
<stop offset="0.5" stop-color="#E58E0E"/>
<stop offset="1" stop-color="#5C3600"/>
</linearGradient>
<clipPath id="clip0_14_2140">
<rect width="111.46" height="108.83" fill="white"/>
</clipPath>
</defs>
</svg>
