<svg width="163" height="183" viewBox="0 0 163 183" fill="none" xmlns="http://www.w3.org/2000/svg">
<g clip-path="url(#clip0_14_2720)">
<path d="M21.384 112.935C10.7596 83.7477 36.6038 47.5335 79.0927 32.0709C121.611 16.5952 164.67 27.7194 175.294 56.907C185.919 86.0946 203.718 99.1895 117.586 137.771C42.2378 171.522 32.0084 142.123 21.384 112.935Z" fill="url(#paint0_linear_14_2720)"/>
<path d="M122.855 150.193C165.355 134.725 192.12 101.063 182.637 75.0061C173.153 48.9493 131.012 40.3654 88.5124 55.8335C46.0127 71.3016 19.2477 104.964 28.7313 131.021C38.2148 157.078 80.3556 165.662 122.855 150.193Z" fill="url(#paint1_linear_14_2720)"/>
<g style="mix-blend-mode:screen" opacity="0.38">
<path d="M94.5069 157.033L182.023 73.4912C177.308 62.3396 166.386 54.5982 152.064 50.8295L47.3952 150.769C59.6392 157.008 76.298 159.275 94.52 157.063L94.5069 157.033Z" fill="url(#paint2_linear_14_2720)"/>
<path d="M28.3015 129.785C28.4129 130.19 28.5665 130.611 28.7071 131.003C30.2175 135.156 32.5339 138.843 35.5851 142.061L133.89 48.2265C127.024 47.9773 119.771 48.4265 112.286 49.6092L28.3015 129.785Z" fill="url(#paint3_linear_14_2720)"/>
</g>
<path style="mix-blend-mode:multiply" d="M122.833 150.189C165.338 134.685 192.088 101.04 182.631 75.0039C173.131 48.9521 130.993 40.3546 88.5046 55.8173C46.0158 71.2799 19.2366 104.938 28.7072 131.003C38.2069 157.055 80.3312 165.623 122.82 150.16L122.833 150.189ZM88.6683 56.3389C130.736 41.0299 172.435 49.5087 181.817 75.2981C191.2 101.087 164.708 134.372 122.64 149.681C80.5726 164.99 38.9025 156.498 29.4911 130.722C20.1089 104.932 46.6006 71.6479 88.6683 56.3389Z" fill="url(#paint4_linear_14_2720)"/>
<path style="mix-blend-mode:screen" d="M122.833 150.19C165.338 134.685 192.127 101.127 182.68 75.1918C173.261 49.2436 131.134 40.7467 88.6453 56.2093C46.1564 71.6719 19.3381 105.243 28.7987 131.207C38.2462 157.142 80.3443 165.652 122.862 150.176L122.833 150.19ZM88.7959 56.7018C130.864 41.3928 172.537 49.8132 181.867 75.486C191.197 101.159 164.679 134.385 122.64 149.681C80.5726 164.99 38.9126 156.599 29.5696 130.897C20.2396 105.224 46.7573 71.9977 88.7959 56.7018Z" fill="url(#paint5_linear_14_2720)"/>
<path style="mix-blend-mode:screen" d="M119.027 139.79C151.863 127.839 172.545 101.838 165.221 81.7154C157.897 61.5927 125.341 54.9681 92.5048 66.9191C59.6686 78.8701 38.9867 104.871 46.3105 124.994C53.6343 145.116 86.1904 151.741 119.027 139.79Z" fill="url(#paint6_linear_14_2720)"/>
<path style="mix-blend-mode:screen" d="M119.158 140.15C152.309 128.085 173.187 101.83 165.791 81.5079C158.395 61.1863 125.525 54.4934 92.3737 66.559C59.2226 78.6246 38.3441 104.88 45.7403 125.201C53.1365 145.523 86.0066 152.216 119.158 140.15Z" fill="url(#paint7_linear_14_2720)"/>
<path d="M118.945 139.449C151.781 127.498 172.463 101.497 165.139 81.3744C157.815 61.2516 125.259 54.6271 92.4231 66.578C59.5869 78.529 38.905 104.53 46.2288 124.653C53.5526 144.775 86.1088 151.4 118.945 139.449Z" fill="#99570E"/>
<path d="M114.538 127.431C146.115 115.939 166.822 93.185 160.789 76.6094C154.756 60.0339 124.268 55.9132 92.6916 67.4057C61.1151 78.8981 40.4079 101.652 46.4407 118.227C52.4735 134.803 82.9618 138.924 114.538 127.431Z" fill="url(#paint8_linear_14_2720)"/>
<path style="mix-blend-mode:multiply" d="M113.824 125.388C82.8931 136.653 53.0151 132.923 46.1365 117.176C46.2218 117.523 46.3494 117.886 46.4638 118.22C52.492 134.802 82.997 138.916 114.566 127.435C146.134 115.954 166.832 93.1744 160.804 76.5915C160.66 76.2709 160.533 75.908 160.389 75.5874C165.221 92.0765 144.725 114.136 113.824 125.388Z" fill="url(#paint9_linear_14_2720)"/>
</g>
<defs>
<linearGradient id="paint0_linear_14_2720" x1="170.978" y1="67.2185" x2="26.4069" y2="119.836" gradientUnits="userSpaceOnUse">
<stop stop-color="#FFD66B"/>
<stop offset="0.14" stop-color="#FFEB65"/>
<stop offset="0.22" stop-color="#D87F20"/>
<stop offset="0.35" stop-color="#D87F20"/>
<stop offset="0.47" stop-color="#6C440F"/>
<stop offset="0.6" stop-color="#6C440F"/>
<stop offset="0.64" stop-color="#FFEB65"/>
<stop offset="0.73" stop-color="#FFEB65"/>
<stop offset="0.81" stop-color="#D87F20"/>
<stop offset="0.92" stop-color="#FFD66B"/>
<stop offset="1" stop-color="#DA9528"/>
</linearGradient>
<linearGradient id="paint1_linear_14_2720" x1="92.5672" y1="66.9742" x2="124.197" y2="153.879" gradientUnits="userSpaceOnUse">
<stop stop-color="#FFEB74"/>
<stop offset="1" stop-color="#FFD86C"/>
</linearGradient>
<linearGradient id="paint2_linear_14_2720" x1="105.989" y1="88.3145" x2="124.535" y2="139.271" gradientUnits="userSpaceOnUse">
<stop stop-color="#FFEB74"/>
<stop offset="1" stop-color="#FFD86C"/>
</linearGradient>
<linearGradient id="paint3_linear_14_2720" x1="77.6925" y1="79.8598" x2="91.7307" y2="118.431" gradientUnits="userSpaceOnUse">
<stop stop-color="#FFEB74"/>
<stop offset="1" stop-color="#FFD86C"/>
</linearGradient>
<linearGradient id="paint4_linear_14_2720" x1="124.814" y1="155.727" x2="90.7524" y2="62.1393" gradientUnits="userSpaceOnUse">
<stop stop-color="#FFEB74"/>
<stop offset="1" stop-color="#FFD86C"/>
</linearGradient>
<linearGradient id="paint5_linear_14_2720" x1="124.823" y1="155.75" x2="90.8936" y2="62.5271" gradientUnits="userSpaceOnUse">
<stop stop-color="#FFEB74"/>
<stop offset="1" stop-color="#FFD86C"/>
</linearGradient>
<linearGradient id="paint6_linear_14_2720" x1="167.939" y1="89.0912" x2="48.9989" y2="132.38" gradientUnits="userSpaceOnUse">
<stop stop-color="#FFEB74"/>
<stop offset="1" stop-color="#FFD86A"/>
</linearGradient>
<linearGradient id="paint7_linear_14_2720" x1="168.48" y1="88.8946" x2="48.4587" y2="132.577" gradientUnits="userSpaceOnUse">
<stop stop-color="#FFEB74"/>
<stop offset="1" stop-color="#FFD86A"/>
</linearGradient>
<linearGradient id="paint8_linear_14_2720" x1="98.5481" y1="83.4035" x2="113.342" y2="124.05" gradientUnits="userSpaceOnUse">
<stop stop-color="#FFC74E"/>
<stop offset="1" stop-color="#FF984D"/>
</linearGradient>
<linearGradient id="paint9_linear_14_2720" x1="107.563" y1="108.329" x2="115.209" y2="129.337" gradientUnits="userSpaceOnUse">
<stop stop-color="#FFEB74"/>
<stop offset="1" stop-color="#FFD86A"/>
</linearGradient>
<clipPath id="clip0_14_2720">
<rect width="126.35" height="164.261" fill="white" transform="translate(149.909) rotate(65.8707)"/>
</clipPath>
</defs>
</svg>
