<svg width="28" height="28" viewBox="0 0 28 28" fill="none" xmlns="http://www.w3.org/2000/svg">
<path d="M7.18213 11.7273H11.7276" stroke="#191919" stroke-width="1.70455" stroke-linecap="round" stroke-linejoin="round"/>
<path d="M24.0379 12.8636H21.0805C19.0529 12.8636 17.4092 14.3899 17.4092 16.2727C17.4092 18.1556 19.0529 19.6818 21.0805 19.6818H24.0379C24.1327 19.6818 24.18 19.6818 24.22 19.6794C24.8328 19.6421 25.3209 19.1889 25.3611 18.6198C25.3637 18.5826 25.3637 18.5386 25.3637 18.4508V14.0947C25.3637 14.0068 25.3637 13.9629 25.3611 13.9257C25.3209 13.3566 24.8328 12.9034 24.22 12.866C24.18 12.8636 24.1327 12.8636 24.0379 12.8636Z" stroke="#191919" stroke-width="1.70455"/>
<path d="M24.1874 12.8636C24.0991 10.736 23.8142 9.43148 22.8958 8.51309C21.5645 7.18176 19.4217 7.18176 15.1362 7.18176H11.7271C7.44164 7.18176 5.2989 7.18176 3.96756 8.51309C2.63623 9.84443 2.63623 11.9872 2.63623 16.2727C2.63623 20.5581 2.63623 22.701 3.96756 24.0322C5.2989 25.3636 7.44164 25.3636 11.7271 25.3636H15.1362C19.4217 25.3636 21.5645 25.3636 22.8958 24.0322C23.8142 23.1139 24.0991 21.8094 24.1874 19.6818" stroke="#191919" stroke-width="1.70455"/>
<path d="M7.18213 7.1818L11.427 4.36717C12.6224 3.57455 14.2419 3.57455 15.4372 4.36717L19.6821 7.1818" stroke="#191919" stroke-width="1.70455" stroke-linecap="round"/>
<path d="M20.8081 16.2727H20.8183" stroke="#191919" stroke-width="2.27273" stroke-linecap="round" stroke-linejoin="round"/>
</svg>
