<svg width="58" height="50" viewBox="0 0 58 50" fill="none" xmlns="http://www.w3.org/2000/svg">
<g clip-path="url(#clip0_14_2640)">
<path d="M51.1862 35.3718C47.9556 44.0505 35.0892 47.2745 22.4561 42.5709C9.81396 37.8647 2.19082 27.0162 5.42139 18.3375C8.65197 9.65878 7.14317 3.24581 34.1514 11.1384C57.778 18.0427 54.4168 26.6931 51.1862 35.3718Z" fill="url(#paint0_linear_14_2640)"/>
<path d="M35.3565 7.30014C22.72 2.59567 10.1378 5.06257 7.25347 12.8101C4.36914 20.5576 12.2749 30.652 24.9115 35.3564C37.548 40.0609 50.1302 37.594 53.0145 29.8465C55.8989 22.0989 47.9931 12.0046 35.3565 7.30014Z" fill="url(#paint1_linear_14_2640)"/>
<g style="mix-blend-mode:screen" opacity="0.38">
<path d="M43.1132 11.2275L7.09988 13.2726C6.01448 16.7152 6.99707 20.5836 9.51932 24.2075L52.5956 21.7563C51.0226 17.9733 47.6796 14.2385 43.1159 11.2184L43.1132 11.2275Z" fill="url(#paint2_linear_14_2640)"/>
<path d="M52.8731 30.2102C52.9261 30.0967 52.9727 29.9714 53.0165 29.8553C53.4765 28.6207 53.6634 27.336 53.5929 26.0159L13.1413 28.3115C14.6516 29.6953 16.3847 30.9954 18.3121 32.1737L52.8731 30.2102Z" fill="url(#paint3_linear_14_2640)"/>
</g>
<path style="mix-blend-mode:multiply" d="M35.3608 7.30535C22.7159 2.60822 10.1405 5.07406 7.25438 12.8118C4.3747 20.5613 12.277 30.658 24.9101 35.3616C37.5431 40.0652 50.1277 37.6021 53.0165 29.8552C55.8962 22.1057 47.9912 12.0181 35.3581 7.31449L35.3608 7.30535ZM24.9738 35.2116C12.466 30.5545 4.64017 20.5694 7.49581 12.9022C10.3515 5.2349 22.7985 2.801 35.3063 7.45806C47.814 12.1151 55.6307 22.0976 52.7842 29.7675C49.9286 37.4348 37.4815 39.8687 24.9738 35.2116Z" fill="url(#paint4_linear_14_2640)"/>
<path style="mix-blend-mode:screen" d="M35.3608 7.30537C22.7159 2.60825 10.1485 5.04666 7.27954 12.7596C4.40141 20.4699 12.3209 30.5419 24.9539 35.2455C37.587 39.9491 50.1635 37.5134 53.0352 29.7913C55.9042 22.0783 47.9939 12.009 35.3517 7.3027L35.3608 7.30537ZM25.015 35.1046C12.5072 30.4476 4.67602 20.4807 7.52098 12.85C10.3659 5.21932 22.8076 2.80369 35.3063 7.45808C47.814 12.1151 55.6479 22.0728 52.8002 29.7127C49.9553 37.3434 37.5136 39.759 25.015 35.1046Z" fill="url(#paint5_linear_14_2640)"/>
<path style="mix-blend-mode:screen" d="M34.2145 10.4016C24.4513 6.76685 14.7308 8.67059 12.5034 14.6537C10.2759 20.6369 16.3849 28.4337 26.1482 32.0685C35.9114 35.7033 45.6319 33.7995 47.8593 27.8164C50.0868 21.8332 43.9778 14.0364 34.2145 10.4016Z" fill="url(#paint6_linear_14_2640)"/>
<path style="mix-blend-mode:screen" d="M34.2544 10.2946C24.3975 6.62492 14.5833 8.54835 12.3338 14.5906C10.0844 20.6329 16.2514 28.506 26.1083 32.1756C35.9652 35.8452 45.7794 33.9218 48.0289 27.8795C50.2784 21.8372 44.1113 13.9642 34.2544 10.2946Z" fill="url(#paint7_linear_14_2640)"/>
<path d="M34.1672 10.4948C24.4039 6.86005 14.6835 8.76379 12.456 14.7469C10.2285 20.7301 16.3375 28.5269 26.1008 32.1617C35.8641 35.7965 45.5845 33.8927 47.812 27.9096C50.0394 21.9264 43.9304 14.1296 34.1672 10.4948Z" fill="#99570E"/>
<path d="M32.8443 14.0745C23.4556 10.5792 14.3571 11.741 12.5223 16.6694C10.6875 21.5979 16.8111 28.4267 26.1998 31.922C35.5886 35.4173 44.687 34.2555 46.5218 29.3271C48.3567 24.3986 42.233 17.5698 32.8443 14.0745Z" fill="url(#paint8_linear_14_2640)"/>
<path style="mix-blend-mode:multiply" d="M32.6116 14.6763C41.8097 18.0984 47.8704 24.7205 46.3877 29.6244C46.4354 29.5292 46.4766 29.4222 46.5151 29.3243C48.3524 24.3951 42.2236 17.5646 32.8389 14.0682C23.4542 10.5718 14.3527 11.7413 12.5155 16.6706C12.4861 16.7711 12.4449 16.8781 12.4155 16.9787C14.5063 12.3021 23.4226 11.257 32.6116 14.6763Z" fill="url(#paint9_linear_14_2640)"/>
</g>
<defs>
<linearGradient id="paint0_linear_14_2640" x1="8.39432" y1="16.8313" x2="51.3801" y2="32.8345" gradientUnits="userSpaceOnUse">
<stop stop-color="#FFD66B"/>
<stop offset="0.14" stop-color="#FFEB65"/>
<stop offset="0.22" stop-color="#D87F20"/>
<stop offset="0.35" stop-color="#D87F20"/>
<stop offset="0.47" stop-color="#6C440F"/>
<stop offset="0.6" stop-color="#6C440F"/>
<stop offset="0.64" stop-color="#FFEB65"/>
<stop offset="0.73" stop-color="#FFEB65"/>
<stop offset="0.81" stop-color="#D87F20"/>
<stop offset="0.92" stop-color="#FFD66B"/>
<stop offset="1" stop-color="#DA9528"/>
</linearGradient>
<linearGradient id="paint1_linear_14_2640" x1="26.1447" y1="32.0439" x2="35.7645" y2="6.2043" gradientUnits="userSpaceOnUse">
<stop stop-color="#FFEB74"/>
<stop offset="1" stop-color="#FFD86C"/>
</linearGradient>
<linearGradient id="paint2_linear_14_2640" x1="27.2233" y1="24.6057" x2="32.8639" y2="9.45457" gradientUnits="userSpaceOnUse">
<stop stop-color="#FFEB74"/>
<stop offset="1" stop-color="#FFD86C"/>
</linearGradient>
<linearGradient id="paint3_linear_14_2640" x1="32.0117" y1="31.9946" x2="36.2813" y2="20.5261" gradientUnits="userSpaceOnUse">
<stop stop-color="#FFEB74"/>
<stop offset="1" stop-color="#FFD86C"/>
</linearGradient>
<linearGradient id="paint4_linear_14_2640" x1="35.9816" y1="5.66538" x2="25.622" y2="33.4922" gradientUnits="userSpaceOnUse">
<stop stop-color="#FFEB74"/>
<stop offset="1" stop-color="#FFD86C"/>
</linearGradient>
<linearGradient id="paint5_linear_14_2640" x1="35.9841" y1="5.65862" x2="25.6649" y2="33.3769" gradientUnits="userSpaceOnUse">
<stop stop-color="#FFEB74"/>
<stop offset="1" stop-color="#FFD86C"/>
</linearGradient>
<linearGradient id="paint6_linear_14_2640" x1="13.3121" y1="12.4541" x2="48.677" y2="25.6201" gradientUnits="userSpaceOnUse">
<stop stop-color="#FFEB74"/>
<stop offset="1" stop-color="#FFD86A"/>
</linearGradient>
<linearGradient id="paint7_linear_14_2640" x1="13.1515" y1="12.3943" x2="48.8376" y2="25.6799" gradientUnits="userSpaceOnUse">
<stop stop-color="#FFEB74"/>
<stop offset="1" stop-color="#FFD86A"/>
</linearGradient>
<linearGradient id="paint8_linear_14_2640" x1="27.963" y1="27.1588" x2="32.4624" y2="15.0731" gradientUnits="userSpaceOnUse">
<stop stop-color="#FFC74E"/>
<stop offset="1" stop-color="#FF984D"/>
</linearGradient>
<linearGradient id="paint9_linear_14_2640" x1="30.7349" y1="19.7585" x2="33.0603" y2="13.5122" gradientUnits="userSpaceOnUse">
<stop stop-color="#FFEB74"/>
<stop offset="1" stop-color="#FFD86A"/>
</linearGradient>
<clipPath id="clip0_14_2640">
<rect width="37.6695" height="48.9723" fill="white" transform="translate(0.183014 36.1613) rotate(-73.7102)"/>
</clipPath>
</defs>
</svg>
