<svg width="37" height="35" viewBox="0 0 37 35" fill="none" xmlns="http://www.w3.org/2000/svg">
<g clip-path="url(#clip0_14_2672)">
<path d="M7.45543 7.46757C10.7809 3.15262 18.5723 3.57958 24.8531 8.42091C31.1386 13.2653 33.5349 20.6881 30.2094 25.0031C26.8838 29.318 26.6159 33.1843 12.8117 24.0497C0.73592 16.0588 4.12992 11.7825 7.45543 7.46757Z" fill="url(#paint0_linear_14_2672)"/>
<path d="M11.4666 25.9969C17.7493 30.8394 25.2491 31.6423 28.2181 27.7904C31.187 23.9385 28.5007 16.8903 22.218 12.0479C15.9354 7.20547 8.4355 6.4025 5.46659 10.2544C2.49767 14.1063 5.18398 21.1545 11.4666 25.9969Z" fill="url(#paint1_linear_14_2672)"/>
<g style="mix-blend-mode:screen" opacity="0.38">
<path d="M7.79114 22.4403L28.3849 27.5573C29.5939 25.8115 29.7148 23.4667 28.9279 20.9913L4.29441 14.8737C4.52014 17.2732 5.74892 19.9537 7.78805 22.4449L7.79114 22.4403Z" fill="url(#paint2_linear_14_2672)"/>
<path d="M5.60942 10.0747C5.55989 10.1292 5.51195 10.1915 5.46709 10.2492C4.99378 10.8629 4.66522 11.5523 4.47516 12.3065L27.6066 18.0548C26.9987 17.0144 26.251 15.9823 25.3728 14.9848L5.60942 10.0747Z" fill="url(#paint3_linear_14_2672)"/>
</g>
<path style="mix-blend-mode:multiply" d="M11.4651 25.9933C17.7537 30.833 25.2496 31.6354 28.2178 27.7893C31.1845 23.9355 28.5005 16.8866 22.2197 12.0452C15.9389 7.20392 8.43831 6.39844 5.46699 10.2492C2.50034 14.103 5.18741 21.1473 11.4682 25.9886L11.4651 25.9933ZM22.1578 12.1185C28.3763 16.9119 31.0367 23.8847 28.0979 27.6965C25.1591 31.5083 17.7409 30.7103 11.5223 25.917C5.30384 21.1236 2.64811 14.1538 5.58227 10.3389C8.5211 6.5271 15.9393 7.3251 22.1578 12.1185Z" fill="url(#paint4_linear_14_2672)"/>
<path style="mix-blend-mode:screen" d="M11.4652 25.9932C17.7537 30.833 25.2404 31.6494 28.1946 27.8142C31.1536 23.9822 28.4557 16.9442 22.1749 12.1028C15.8941 7.26152 8.40277 6.44202 5.4454 10.2818C2.49111 14.117 5.18435 21.1519 11.4698 25.9963L11.4652 25.9932ZM22.1161 12.1714C28.3346 16.9648 31.0012 23.9283 28.0747 27.7214C25.1482 31.5145 17.7362 30.7072 11.5224 25.9169C5.30389 21.1235 2.63421 14.1647 5.56377 10.3669C8.49023 6.57378 15.9022 7.38112 22.1161 12.1714Z" fill="url(#paint5_linear_14_2672)"/>
<path style="mix-blend-mode:screen" d="M12.6481 24.4527C17.5022 28.1941 23.2959 28.8156 25.5887 25.8409C27.8815 22.8662 25.8051 17.4218 20.951 13.6804C16.0969 9.93904 10.3032 9.31754 8.0104 12.2922C5.71762 15.2669 7.79397 20.7114 12.6481 24.4527Z" fill="url(#paint6_linear_14_2672)"/>
<path style="mix-blend-mode:screen" d="M12.607 24.506C17.5076 28.2832 23.3574 28.91 25.6729 25.9059C27.9883 22.9018 25.8926 17.4044 20.992 13.6272C16.0913 9.8499 10.2415 9.22315 7.92603 12.2273C5.61058 15.2314 7.70631 20.7287 12.607 24.506Z" fill="url(#paint7_linear_14_2672)"/>
<path d="M12.6909 24.4086C17.545 28.15 23.3387 28.7715 25.6315 25.7968C27.9243 22.8221 25.8479 17.3776 20.9938 13.6363C16.1397 9.89491 10.346 9.27341 8.05325 12.2481C5.76046 15.2228 7.83682 20.6673 12.6909 24.4086Z" fill="#99570E"/>
<path d="M14.0571 22.6272C18.725 26.225 24.0401 27.1552 25.9287 24.7049C27.8173 22.2546 25.5643 17.3516 20.8964 13.7538C16.2285 10.1559 10.9134 9.2257 9.0248 11.676C7.13618 14.1264 9.38921 19.0294 14.0571 22.6272Z" fill="url(#paint8_linear_14_2672)"/>
<path style="mix-blend-mode:multiply" d="M14.2926 22.3294C9.71908 18.806 7.46549 14.0301 9.15194 11.5323C9.10859 11.5775 9.06683 11.6304 9.02815 11.6787C7.13802 14.1291 9.3936 19.0339 14.059 22.6316C18.7245 26.2294 24.0426 27.1558 25.9328 24.7054C25.9668 24.6541 26.0085 24.6011 26.0425 24.5497C24.0539 26.8139 18.8615 25.8498 14.2926 22.3294Z" fill="url(#paint9_linear_14_2672)"/>
</g>
<defs>
<linearGradient id="paint0_linear_14_2672" x1="28.2766" y1="25.3322" x2="6.905" y2="8.85968" gradientUnits="userSpaceOnUse">
<stop stop-color="#FFD66B"/>
<stop offset="0.14" stop-color="#FFEB65"/>
<stop offset="0.22" stop-color="#D87F20"/>
<stop offset="0.35" stop-color="#D87F20"/>
<stop offset="0.47" stop-color="#6C440F"/>
<stop offset="0.6" stop-color="#6C440F"/>
<stop offset="0.64" stop-color="#FFEB65"/>
<stop offset="0.73" stop-color="#FFEB65"/>
<stop offset="0.81" stop-color="#D87F20"/>
<stop offset="0.92" stop-color="#FFD66B"/>
<stop offset="1" stop-color="#DA9528"/>
</linearGradient>
<linearGradient id="paint1_linear_14_2672" x1="20.9486" y1="13.6948" x2="11.0467" y2="26.5418" gradientUnits="userSpaceOnUse">
<stop stop-color="#FFEB74"/>
<stop offset="1" stop-color="#FFD86C"/>
</linearGradient>
<linearGradient id="paint2_linear_14_2672" x1="19.0483" y1="17.6871" x2="13.2423" y2="25.2199" gradientUnits="userSpaceOnUse">
<stop stop-color="#FFEB74"/>
<stop offset="1" stop-color="#FFD86C"/>
</linearGradient>
<linearGradient id="paint3_linear_14_2672" x1="17.6431" y1="12.7017" x2="13.2483" y2="18.4036" gradientUnits="userSpaceOnUse">
<stop stop-color="#FFEB74"/>
<stop offset="1" stop-color="#FFD86C"/>
</linearGradient>
<linearGradient id="paint4_linear_14_2672" x1="10.8309" y1="26.8069" x2="21.4944" y2="12.9719" gradientUnits="userSpaceOnUse">
<stop stop-color="#FFEB74"/>
<stop offset="1" stop-color="#FFD86C"/>
</linearGradient>
<linearGradient id="paint5_linear_14_2672" x1="10.8284" y1="26.8102" x2="21.4502" y2="13.0292" gradientUnits="userSpaceOnUse">
<stop stop-color="#FFEB74"/>
<stop offset="1" stop-color="#FFD86C"/>
</linearGradient>
<linearGradient id="paint6_linear_14_2672" x1="24.7515" y1="26.9363" x2="7.16876" y2="13.3842" gradientUnits="userSpaceOnUse">
<stop stop-color="#FFEB74"/>
<stop offset="1" stop-color="#FFD86A"/>
</linearGradient>
<linearGradient id="paint7_linear_14_2672" x1="24.8312" y1="26.9978" x2="7.08883" y2="13.3226" gradientUnits="userSpaceOnUse">
<stop stop-color="#FFEB74"/>
<stop offset="1" stop-color="#FFD86A"/>
</linearGradient>
<linearGradient id="paint8_linear_14_2672" x1="19.0768" y1="16.1237" x2="14.4455" y2="22.1325" gradientUnits="userSpaceOnUse">
<stop stop-color="#FFC74E"/>
<stop offset="1" stop-color="#FF984D"/>
</linearGradient>
<linearGradient id="paint9_linear_14_2672" x1="16.2315" y1="19.8" x2="13.8379" y2="22.9055" gradientUnits="userSpaceOnUse">
<stop stop-color="#FFEB74"/>
<stop offset="1" stop-color="#FFD86A"/>
</linearGradient>
<clipPath id="clip0_14_2672">
<rect width="22.1601" height="28.8093" fill="white" transform="translate(36.2544 15.8983) rotate(123.494)"/>
</clipPath>
</defs>
</svg>
