<svg width="72" height="81" viewBox="0 0 72 81" fill="none" xmlns="http://www.w3.org/2000/svg">
<g clip-path="url(#clip0_14_2616)">
<path d="M19.2253 69.2407C7.8377 63.8436 4.97471 46.0219 12.8323 29.4458C20.6947 12.8576 36.2961 3.79392 47.6837 9.19101C59.0714 14.5881 67.9427 13.2942 54.0767 48.986C41.9469 80.2087 30.6129 74.6378 19.2253 69.2407Z" fill="url(#paint0_linear_14_2616)"/>
<path d="M59.1392 51.0697C66.9985 34.4889 65.1286 17.1413 54.9629 12.3228C44.7971 7.50422 30.185 17.0394 22.3257 33.6202C14.4665 50.2011 16.3363 67.5486 26.5021 72.3672C36.6679 77.1857 51.28 67.6505 59.1392 51.0697Z" fill="url(#paint1_linear_14_2616)"/>
<g style="mix-blend-mode:screen" opacity="0.38">
<path d="M52.9054 61.1256L54.3538 12.0604C49.8136 10.1853 44.4538 11.0641 39.2451 14.0589L37.5195 72.7475C42.8328 71.0583 48.2881 66.9637 52.9175 61.1303L52.9054 61.1256Z" fill="url(#paint2_linear_14_2616)"/>
<path d="M26.0256 72.1329C26.1732 72.218 26.3376 72.2958 26.4899 72.3689C28.1098 73.1372 29.8296 73.5412 31.6277 73.6003L33.2565 18.4885C31.2034 20.3739 29.2377 22.5712 27.4143 25.0462L26.0256 72.1329Z" fill="url(#paint3_linear_14_2616)"/>
</g>
<path style="mix-blend-mode:multiply" d="M59.1316 51.0749C66.9818 34.482 65.1127 17.1437 54.9604 12.3238C44.7914 7.51137 30.1764 17.0417 22.3188 33.6178C14.4611 50.1939 16.3256 67.5443 26.4899 72.3689C36.6589 77.1813 51.2619 67.6463 59.1195 51.0702L59.1316 51.0749ZM22.5147 33.7217C30.2946 17.31 44.7493 7.87033 54.8096 12.6406C64.8699 17.4108 66.7108 34.5713 58.9309 50.983C51.1511 67.3948 36.7011 76.8224 26.6361 72.0642C16.5758 67.294 14.7349 50.1335 22.5147 33.7217Z" fill="url(#paint4_linear_14_2616)"/>
<path style="mix-blend-mode:screen" d="M59.1316 51.0749C66.9819 34.482 65.1489 17.1577 55.0282 12.364C44.9122 7.55826 30.3288 17.1147 22.4711 33.6909C14.6135 50.267 16.4417 67.6033 26.5745 72.4017C36.6952 77.1954 51.274 67.651 59.1363 51.0628L59.1316 51.0749ZM22.655 33.7901C30.4349 17.3784 44.8654 7.92931 54.8774 12.6808C64.8894 17.4322 66.7061 34.5834 58.931 50.983C51.1511 67.3947 36.7326 76.8485 26.7086 72.0923C16.6966 67.3409 14.8798 50.1897 22.655 33.7901Z" fill="url(#paint5_linear_14_2616)"/>
<path style="mix-blend-mode:screen" d="M55.0682 49.1579C61.1404 36.3472 59.6987 22.9455 51.848 19.2243C43.9973 15.5032 32.7106 22.8716 26.6384 35.6823C20.5662 48.493 22.008 61.8947 29.8586 65.6159C37.7093 69.3371 48.996 61.9686 55.0682 49.1579Z" fill="url(#paint6_linear_14_2616)"/>
<path style="mix-blend-mode:screen" d="M55.2087 49.2245C61.3391 36.291 59.8817 22.7598 51.9535 19.0019C44.0252 15.2439 32.6284 22.6822 26.4979 35.6157C20.3675 48.5493 21.8249 62.0804 29.7532 65.8384C37.6814 69.5963 49.0783 62.1581 55.2087 49.2245Z" fill="url(#paint7_linear_14_2616)"/>
<path d="M54.9474 49.0828C61.0196 36.2721 59.5778 22.8704 51.7272 19.1492C43.8765 15.428 32.5898 22.7965 26.5176 35.6072C20.4454 48.4179 21.8871 61.8196 29.7378 65.5408C37.5884 69.2619 48.8752 61.8934 54.9474 49.0828Z" fill="#99570E"/>
<path d="M50.2493 46.8697C56.0885 34.5505 55.5798 22.079 49.113 19.0137C42.6463 15.9485 32.6703 23.4503 26.831 35.7695C20.9918 48.0888 21.5005 60.5603 27.9672 63.6255C34.434 66.6907 44.41 59.1889 50.2493 46.8697Z" fill="url(#paint8_linear_14_2616)"/>
<path style="mix-blend-mode:multiply" d="M49.4605 46.4837C43.7429 58.5531 34.0545 65.9937 27.5798 63.4088C27.7033 63.4846 27.8435 63.553 27.9717 63.6167C34.4392 66.6853 44.4181 59.1768 50.2584 46.8631C56.0986 34.5495 55.5797 22.073 49.1122 19.0043C48.9793 18.9527 48.8391 18.8843 48.7062 18.8327C54.8015 22.2155 55.1734 34.4263 49.4605 46.4837Z" fill="url(#paint9_linear_14_2616)"/>
</g>
<defs>
<linearGradient id="paint0_linear_14_2616" x1="49.3773" y1="13.3981" x2="22.6426" y2="69.801" gradientUnits="userSpaceOnUse">
<stop stop-color="#FFD66B"/>
<stop offset="0.14" stop-color="#FFEB65"/>
<stop offset="0.22" stop-color="#D87F20"/>
<stop offset="0.35" stop-color="#D87F20"/>
<stop offset="0.47" stop-color="#6C440F"/>
<stop offset="0.6" stop-color="#6C440F"/>
<stop offset="0.64" stop-color="#FFEB65"/>
<stop offset="0.73" stop-color="#FFEB65"/>
<stop offset="0.81" stop-color="#D87F20"/>
<stop offset="0.92" stop-color="#FFD66B"/>
<stop offset="1" stop-color="#DA9528"/>
</linearGradient>
<linearGradient id="paint1_linear_14_2616" x1="26.6722" y1="35.6804" x2="60.5771" y2="51.7512" gradientUnits="userSpaceOnUse">
<stop stop-color="#FFEB74"/>
<stop offset="1" stop-color="#FFD86C"/>
</linearGradient>
<linearGradient id="paint2_linear_14_2616" x1="36.6302" y1="38.0147" x2="56.5104" y2="47.4379" gradientUnits="userSpaceOnUse">
<stop stop-color="#FFEB74"/>
<stop offset="1" stop-color="#FFD86C"/>
</linearGradient>
<linearGradient id="paint3_linear_14_2616" x1="26.0514" y1="43.6406" x2="41.0995" y2="50.7733" gradientUnits="userSpaceOnUse">
<stop stop-color="#FFEB74"/>
<stop offset="1" stop-color="#FFD86C"/>
</linearGradient>
<linearGradient id="paint4_linear_14_2616" x1="61.2822" y1="52.1087" x2="24.7699" y2="34.8021" gradientUnits="userSpaceOnUse">
<stop stop-color="#FFEB74"/>
<stop offset="1" stop-color="#FFD86C"/>
</linearGradient>
<linearGradient id="paint5_linear_14_2616" x1="61.2912" y1="52.1129" x2="24.9212" y2="34.8737" gradientUnits="userSpaceOnUse">
<stop stop-color="#FFEB74"/>
<stop offset="1" stop-color="#FFD86C"/>
</linearGradient>
<linearGradient id="paint6_linear_14_2616" x1="54.7354" y1="20.5786" x2="32.7405" y2="66.9819" gradientUnits="userSpaceOnUse">
<stop stop-color="#FFEB74"/>
<stop offset="1" stop-color="#FFD86A"/>
</linearGradient>
<linearGradient id="paint7_linear_14_2616" x1="54.8353" y1="20.3679" x2="32.6406" y2="67.1927" gradientUnits="userSpaceOnUse">
<stop stop-color="#FFEB74"/>
<stop offset="1" stop-color="#FFD86A"/>
</linearGradient>
<linearGradient id="paint8_linear_14_2616" x1="33.0822" y1="38.7182" x2="48.9401" y2="46.2348" gradientUnits="userSpaceOnUse">
<stop stop-color="#FFC74E"/>
<stop offset="1" stop-color="#FF984D"/>
</linearGradient>
<linearGradient id="paint9_linear_14_2616" x1="42.7902" y1="43.3436" x2="50.9862" y2="47.2285" gradientUnits="userSpaceOnUse">
<stop stop-color="#FFEB74"/>
<stop offset="1" stop-color="#FFD86A"/>
</linearGradient>
<clipPath id="clip0_14_2616">
<rect width="51.2614" height="66.6425" fill="white" transform="translate(24.1328) rotate(21.2307)"/>
</clipPath>
</defs>
</svg>
