<svg width="137" height="140" viewBox="0 0 137 140" fill="none" xmlns="http://www.w3.org/2000/svg">
<g clip-path="url(#clip0_14_2736)">
<path d="M97.6958 116.972C80.825 129.353 52.526 119.475 34.5055 94.915C16.4711 70.3389 15.5374 40.3917 32.4081 28.011C49.2789 15.6303 54.3878 1.64714 95.5984 50.0682C131.649 92.4264 114.567 104.592 97.6958 116.972Z" fill="url(#paint0_linear_14_2736)"/>
<path d="M102.637 44.3153C84.6112 19.7495 57.7886 8.79433 42.7272 19.8462C27.6659 30.898 30.0692 59.7718 48.0952 84.3375C66.1213 108.903 92.9439 119.858 108.005 108.807C123.067 97.7548 120.663 68.881 102.637 44.3153Z" fill="url(#paint1_linear_14_2736)"/>
<g style="mix-blend-mode:screen" opacity="0.38">
<path d="M112.412 61.3578L41.8633 20.5289C35.5414 25.6834 32.5965 34.2082 32.8627 44.1819L117.254 93.0085C118.978 83.9123 117.299 72.7106 112.428 61.3438L112.412 61.3578Z" fill="url(#paint2_linear_14_2736)"/>
<path d="M107.287 109.318C107.528 109.169 107.771 108.991 107.998 108.826C110.399 107.065 112.346 104.871 113.851 102.29L34.61 56.427C35.7449 60.9144 37.4045 65.5203 39.5822 70.1374L107.287 109.318Z" fill="url(#paint3_linear_14_2736)"/>
</g>
<path style="mix-blend-mode:multiply" d="M102.639 44.3304C84.588 19.7683 57.7795 8.81945 42.7269 19.8505C27.6718 30.9118 30.0657 59.7859 48.0861 84.3457C66.1066 108.905 92.9291 119.871 107.998 108.826C123.053 97.7643 120.643 68.9041 102.622 44.3444L102.639 44.3304ZM48.3926 84.1414C30.551 59.825 28.163 31.2566 43.0706 20.3208C57.9782 9.38495 84.5047 20.2348 102.346 44.5511C120.188 68.8675 122.562 97.4195 107.668 108.372C92.7607 119.308 66.2342 108.458 48.3926 84.1414Z" fill="url(#paint4_linear_14_2736)"/>
<path style="mix-blend-mode:screen" d="M102.639 44.3305C84.588 19.7683 57.8286 8.77763 42.8391 19.7832C27.8356 30.7724 30.2926 59.621 48.3131 84.1808C66.3335 108.74 93.1069 119.748 108.113 108.728C123.102 97.7225 120.659 68.8902 102.625 44.3141L102.639 44.3305ZM48.6031 83.9904C30.7615 59.674 28.3408 31.1336 43.1828 20.2535C58.0249 9.37346 84.5186 20.2512 102.346 44.5512C120.188 68.8675 122.625 97.394 107.767 108.288C92.9245 119.168 66.4308 108.29 48.6031 83.9904Z" fill="url(#paint5_linear_14_2736)"/>
<path style="mix-blend-mode:screen" d="M96.6318 48.7552C82.7045 29.7752 61.9851 21.3078 50.3538 29.8428C38.7224 38.3777 40.5836 60.683 54.5109 79.663C68.4382 98.643 89.1576 107.11 100.789 98.5755C112.42 90.0405 110.559 67.7352 96.6318 48.7552Z" fill="url(#paint6_linear_14_2736)"/>
<path style="mix-blend-mode:screen" d="M96.84 48.6025C82.7791 29.4404 61.8583 20.8938 50.1119 29.5131C38.3656 38.1325 40.2419 60.6537 54.3028 79.8158C68.3636 98.9778 89.2845 107.524 101.031 98.9051C112.777 90.2858 110.901 67.7645 96.84 48.6025Z" fill="url(#paint7_linear_14_2736)"/>
<path d="M96.4267 48.8725C82.4995 29.8925 61.7801 21.4251 50.1487 29.9601C38.5173 38.495 40.3786 60.8003 54.3058 79.7803C68.2331 98.7603 88.9525 107.228 100.584 98.6928C112.215 90.1578 110.354 67.8525 96.4267 48.8725Z" fill="#99570E"/>
<path d="M89.4864 53.991C76.0934 35.7391 57.4693 26.6424 47.8882 33.6728C38.3072 40.7032 41.3974 61.1986 54.7904 79.4504C68.1834 97.7023 86.8075 106.799 96.3885 99.7686C105.97 92.7382 102.879 72.2428 89.4864 53.991Z" fill="url(#paint8_linear_14_2736)"/>
<path style="mix-blend-mode:multiply" d="M88.2999 54.8389C101.424 72.7158 104.652 92.7427 95.7661 100.164C95.9742 100.043 96.1848 99.8921 96.379 99.7551C105.966 92.7263 102.868 72.2214 89.4839 53.9725C76.0998 35.7235 57.4604 26.6377 47.8737 33.6666C47.6935 33.82 47.4829 33.9709 47.3027 34.1243C57.0545 27.8873 75.1898 36.9783 88.2999 54.8389Z" fill="url(#paint9_linear_14_2736)"/>
</g>
<defs>
<linearGradient id="paint0_linear_14_2736" x1="39.8915" y1="28.8559" x2="101.211" y2="112.421" gradientUnits="userSpaceOnUse">
<stop stop-color="#FFD66B"/>
<stop offset="0.14" stop-color="#FFEB65"/>
<stop offset="0.22" stop-color="#D87F20"/>
<stop offset="0.35" stop-color="#D87F20"/>
<stop offset="0.47" stop-color="#6C440F"/>
<stop offset="0.6" stop-color="#6C440F"/>
<stop offset="0.64" stop-color="#FFEB65"/>
<stop offset="0.73" stop-color="#FFEB65"/>
<stop offset="0.81" stop-color="#D87F20"/>
<stop offset="0.92" stop-color="#FFD66B"/>
<stop offset="1" stop-color="#DA9528"/>
</linearGradient>
<linearGradient id="paint1_linear_14_2736" x1="54.5348" y1="79.6123" x2="104.768" y2="42.7521" gradientUnits="userSpaceOnUse">
<stop stop-color="#FFEB74"/>
<stop offset="1" stop-color="#FFD86C"/>
</linearGradient>
<linearGradient id="paint2_linear_14_2736" x1="65.8024" y1="66.9037" x2="95.2565" y2="45.2907" gradientUnits="userSpaceOnUse">
<stop stop-color="#FFEB74"/>
<stop offset="1" stop-color="#FFD86C"/>
</linearGradient>
<linearGradient id="paint3_linear_14_2736" x1="65.676" y1="86.7996" x2="87.9709" y2="70.4399" gradientUnits="userSpaceOnUse">
<stop stop-color="#FFEB74"/>
<stop offset="1" stop-color="#FFD86C"/>
</linearGradient>
<linearGradient id="paint4_linear_14_2736" x1="105.846" y1="42.0037" x2="51.7504" y2="81.6986" gradientUnits="userSpaceOnUse">
<stop stop-color="#FFEB74"/>
<stop offset="1" stop-color="#FFD86C"/>
</linearGradient>
<linearGradient id="paint5_linear_14_2736" x1="105.859" y1="41.9941" x2="51.9746" y2="81.5341" gradientUnits="userSpaceOnUse">
<stop stop-color="#FFEB74"/>
<stop offset="1" stop-color="#FFD86C"/>
</linearGradient>
<linearGradient id="paint6_linear_14_2736" x1="54.6107" y1="26.6924" x2="105.059" y2="95.4424" gradientUnits="userSpaceOnUse">
<stop stop-color="#FFEB74"/>
<stop offset="1" stop-color="#FFD86A"/>
</linearGradient>
<linearGradient id="paint7_linear_14_2736" x1="54.3816" y1="26.3801" x2="105.288" y2="95.7547" gradientUnits="userSpaceOnUse">
<stop stop-color="#FFEB74"/>
<stop offset="1" stop-color="#FFD86A"/>
</linearGradient>
<linearGradient id="paint8_linear_14_2736" x1="64.0311" y1="72.6431" x2="87.5258" y2="55.4029" gradientUnits="userSpaceOnUse">
<stop stop-color="#FFC74E"/>
<stop offset="1" stop-color="#FF984D"/>
</linearGradient>
<linearGradient id="paint9_linear_14_2736" x1="78.449" y1="62.1076" x2="90.5919" y2="53.1973" gradientUnits="userSpaceOnUse">
<stop stop-color="#FFEB74"/>
<stop offset="1" stop-color="#FFD86A"/>
</linearGradient>
<clipPath id="clip0_14_2736">
<rect width="85.1228" height="110.664" fill="white" transform="translate(0.396973 55.1707) rotate(-40.4007)"/>
</clipPath>
</defs>
</svg>
